<?xml version="1.0" standalone="no"?>
<!DOCTYPE svg PUBLIC "-//W3C//DTD SVG 20010904//EN"
 "http://www.w3.org/TR/2001/REC-SVG-20010904/DTD/svg10.dtd">
<svg version="1.0" xmlns="http://www.w3.org/2000/svg"
 width="1595.000000pt" height="1595.000000pt" viewBox="0 0 1595.000000 1595.000000"
 preserveAspectRatio="xMidYMid meet">
<metadata>
Created by potrace 1.14, written by Peter Selinger 2001-2017
</metadata>
<g transform="translate(0.000000,1595.000000) scale(0.100000,-0.100000)"
fill="#000000" stroke="none">
<path d="M3719 15291 c-1 -3 -1 -10 0 -14 1 -4 -8 -3 -19 3 -11 6 -20 7 -20 3
0 -7 -23 -12 -77 -16 -13 0 -23 -5 -23 -9 0 -5 -6 -8 -12 -7 -26 3 -39 -1 -33
-10 3 -6 -4 -8 -16 -6 -12 3 -27 1 -33 -3 -6 -3 -19 -8 -28 -9 -35 -5 -43 -8
-48 -15 -3 -4 -20 -8 -38 -10 -18 -1 -32 -5 -32 -9 0 -4 -17 -10 -38 -14 -22
-3 -51 -12 -65 -20 -20 -10 -27 -11 -27 -2 0 9 -2 9 -8 0 -5 -7 -20 -14 -35
-15 -15 -1 -29 -8 -31 -14 -2 -6 -17 -10 -32 -8 -15 1 -38 -4 -50 -13 -13 -8
-24 -13 -24 -10 0 3 -16 -1 -35 -9 -20 -8 -40 -12 -45 -9 -6 4 -10 1 -10 -4 0
-6 -10 -11 -23 -11 -13 0 -27 -3 -31 -7 -7 -7 -31 -14 -58 -16 -10 -1 -18 -5
-18 -10 0 -4 -4 -6 -9 -2 -5 3 -15 -1 -23 -8 -7 -8 -23 -13 -36 -12 -12 1 -22
-2 -22 -7 0 -4 -3 -7 -7 -7 -5 1 -11 0 -15 -1 -5 -1 -12 -4 -18 -5 -5 -1 -11
-3 -12 -5 -4 -2 -40 -11 -53 -12 -13 -2 -6 -89 7 -106 8 -9 6 -11 -8 -6 -16 6
-17 5 -6 -7 13 -14 17 -33 4 -25 -4 2 -8 -4 -8 -14 0 -10 4 -16 8 -14 4 3 8
-2 8 -11 0 -10 -5 -13 -12 -9 -8 5 -7 0 2 -11 9 -11 10 -16 3 -11 -7 4 -13 2
-13 -3 0 -6 5 -11 10 -11 6 0 10 -5 10 -11 0 -5 -5 -7 -12 -3 -7 4 -8 3 -4 -5
10 -16 13 -121 4 -115 -4 3 -5 -3 -1 -12 5 -12 3 -15 -6 -9 -8 4 -6 -4 4 -19
10 -14 13 -26 7 -26 -12 0 -10 -33 3 -42 6 -4 1 -8 -10 -8 -18 -1 -18 -2 -3
-11 14 -8 15 -15 8 -35 -12 -30 -12 -37 -2 -31 4 3 5 -15 3 -39 -2 -26 -7 -41
-13 -38 -6 4 -3 -5 6 -18 9 -14 14 -27 11 -30 -3 -3 -6 -22 -7 -42 -1 -20 -6
-36 -12 -37 -6 0 -2 -4 9 -9 11 -5 14 -9 7 -9 -9 -1 -10 -6 -2 -20 13 -25 13
-31 -1 -31 -5 0 -7 5 -3 12 5 7 3 8 -5 3 -9 -5 -10 -10 -2 -18 16 -16 14 -50
-1 -41 -10 6 -10 4 0 -8 7 -9 10 -27 7 -41 -4 -14 -2 -28 5 -32 8 -5 6 -11 -6
-19 -13 -10 -14 -15 -4 -21 9 -6 11 -4 5 5 -5 9 -4 11 3 6 8 -5 9 -13 3 -24
-4 -9 -6 -23 -3 -31 3 -10 0 -11 -9 -5 -11 6 -12 5 -2 -7 13 -16 12 -36 -1
-58 -6 -9 -5 -12 1 -8 14 9 12 -86 -2 -95 -7 -5 -7 -8 1 -8 6 0 11 -16 11 -35
0 -22 -4 -32 -11 -28 -8 5 -8 3 0 -8 16 -21 17 -72 1 -63 -9 6 -9 5 -1 -7 13
-15 13 -77 1 -96 -4 -6 -2 -15 4 -19 8 -5 9 -3 4 6 -5 9 -4 11 3 6 8 -5 9 -13
2 -25 -5 -10 -6 -21 -2 -25 3 -4 0 -11 -8 -16 -9 -6 -10 -10 -3 -10 10 0 12
-50 3 -85 -1 -5 -1 -14 0 -20 6 -25 4 -85 -3 -85 -5 0 -5 -6 0 -12 11 -18 10
-42 -2 -50 -6 -5 -5 -8 2 -8 8 0 10 -7 5 -22 -9 -29 -9 -49 2 -66 4 -7 2 -19
-4 -27 -10 -12 -10 -15 0 -15 10 0 10 -3 0 -15 -7 -8 -8 -15 -3 -15 11 0 9
-41 -1 -59 -4 -5 -2 -13 4 -16 8 -5 7 -11 -1 -21 -6 -8 -7 -14 -2 -14 5 0 10
-7 10 -15 0 -8 -4 -12 -9 -9 -10 6 -11 -10 -1 -20 11 -11 10 -40 -2 -48 -6 -5
-5 -8 3 -8 9 0 10 -5 2 -19 -6 -13 -7 -22 0 -26 5 -3 7 -11 4 -18 -8 -23 -10
-127 -2 -127 5 0 4 -9 -2 -20 -8 -14 -8 -20 0 -20 7 0 8 -5 3 -12 -4 -7 -6
-21 -4 -32 1 -10 -2 -16 -8 -12 -5 4 -4 -6 4 -21 8 -16 11 -31 5 -37 -11 -14
-10 -27 2 -50 5 -10 6 -16 1 -13 -10 6 -9 -88 2 -118 4 -12 3 -15 -2 -8 -4 6
-9 -183 -10 -420 -1 -238 -5 -787 -8 -1222 -3 -434 -8 -1058 -11 -1385 -2
-327 -6 -856 -9 -1175 -3 -319 -7 -841 -10 -1160 -2 -319 -7 -854 -10 -1190
-9 -1035 -14 -1736 -20 -2616 l-5 -846 57 -11 c32 -7 71 -15 87 -18 16 -3 40
-10 54 -15 14 -5 27 -7 29 -5 3 3 17 0 31 -5 23 -9 125 -33 187 -45 11 -2 54
-12 95 -22 88 -21 89 -22 93 -23 5 -1 33 -7 60 -12 15 -3 35 -8 45 -11 9 -3
28 -7 42 -10 14 -2 52 -11 85 -19 33 -9 74 -18 90 -21 17 -2 30 -5 30 -6 0 -2
15 -5 55 -13 14 -3 45 -10 70 -17 25 -7 56 -14 70 -16 14 -3 63 -14 110 -25
47 -12 96 -23 110 -26 14 -2 43 -9 65 -14 22 -6 58 -14 80 -19 39 -8 64 -14
115 -26 124 -29 135 -32 200 -45 30 -6 66 -15 80 -20 14 -4 39 -10 55 -13 17
-2 80 -16 140 -31 61 -15 117 -28 125 -30 8 -2 35 -8 59 -14 25 -5 49 -8 53
-5 4 3 8 1 8 -3 0 -5 8 -9 18 -10 30 -3 71 -11 82 -18 5 -3 24 -8 42 -10 18
-3 69 -14 113 -25 44 -11 94 -23 110 -26 17 -3 64 -14 105 -24 41 -10 89 -22
105 -25 17 -3 35 -7 40 -9 6 -1 40 -8 78 -16 37 -7 67 -18 67 -22 0 -5 4 -7 9
-4 5 4 58 -6 118 -20 59 -14 117 -27 128 -29 11 -1 20 -4 20 -5 0 -1 9 -4 20
-6 11 -1 31 -5 45 -9 22 -5 62 -13 95 -18 6 -1 12 -5 15 -9 3 -4 22 -8 43 -10
20 -1 37 -5 37 -8 0 -3 16 -6 37 -7 20 -1 39 -6 42 -10 3 -4 15 -9 26 -10 11
-1 27 -4 35 -6 30 -8 115 -21 123 -19 4 1 7 -2 7 -7 0 -6 8 -9 18 -9 9 1 33
-4 52 -10 19 -6 52 -13 73 -15 21 -2 43 -9 49 -15 6 -6 17 -8 24 -5 8 3 27 0
42 -5 15 -6 41 -13 59 -16 17 -2 39 -8 48 -14 10 -5 26 -7 36 -5 11 3 26 0 34
-7 8 -6 19 -9 25 -5 5 3 10 1 10 -5 0 -6 5 -8 10 -5 16 10 51 -5 44 -18 -5 -9
-4 -9 5 -1 7 6 23 9 37 6 20 -4 23 -7 12 -14 -10 -7 -8 -8 5 -4 22 7 98 -4 92
-13 -2 -4 6 -8 18 -8 22 -2 37 -4 107 -17 19 -4 44 -15 55 -24 19 -16 19 -16
6 1 -13 16 -11 16 20 3 19 -7 40 -11 48 -8 8 2 11 1 8 -4 -3 -5 7 -10 21 -11
60 -4 82 -8 82 -16 0 -5 5 -5 10 -2 6 3 10 0 10 -7 0 -10 2 -10 9 1 7 11 11
10 20 -5 6 -12 11 -14 11 -5 0 10 3 11 13 2 8 -6 17 -8 20 -4 4 3 13 0 22 -7
12 -10 15 -10 16 1 0 8 4 5 9 -6 5 -11 9 -15 9 -8 1 8 14 7 47 -3 26 -7 50
-11 54 -9 5 3 11 1 15 -5 3 -5 17 -10 30 -10 13 0 26 -6 28 -12 4 -10 6 -10 6
0 1 19 21 14 21 -5 0 -15 2 -16 10 -3 6 9 10 10 10 3 0 -7 10 -10 26 -7 14 3
23 1 20 -4 -3 -5 8 -8 24 -7 17 1 30 -2 30 -6 0 -5 7 -5 17 -2 10 4 14 2 10
-4 -7 -12 18 -12 29 0 3 3 16 -1 28 -9 13 -8 26 -11 29 -7 4 3 7 1 7 -5 0 -6
9 -9 20 -7 11 2 25 -4 31 -13 9 -15 10 -15 6 -1 -4 13 -1 15 14 12 10 -3 17
-8 15 -12 -3 -4 5 -7 17 -8 54 -3 87 -9 87 -15 0 -5 3 -7 8 -7 25 4 42 -2 36
-13 -5 -9 -2 -9 9 1 9 7 17 9 17 3 0 -5 7 -13 16 -16 8 -3 12 -2 9 4 -3 6 -1
10 4 10 6 0 11 -6 11 -12 0 -9 4 -8 10 2 8 13 10 12 10 -2 0 -10 5 -18 11 -18
5 0 7 4 4 10 -6 9 17 4 40 -9 6 -3 20 -4 33 -2 13 1 22 -3 22 -11 0 -10 3 -9
10 2 7 12 10 12 10 1 0 -7 6 -11 15 -7 8 3 15 1 15 -3 0 -5 9 -7 20 -4 11 3
20 1 20 -5 0 -5 7 -13 16 -16 10 -4 13 -2 8 6 -5 8 -2 9 10 5 10 -4 20 -7 22
-7 3 0 2 -6 -2 -13 -5 -8 -2 -8 9 2 13 10 20 11 30 2 8 -6 17 -8 20 -4 4 3 7
1 7 -5 0 -7 5 -12 11 -12 5 0 7 4 4 10 -3 6 1 7 9 4 9 -3 13 -11 10 -16 -4 -6
3 -5 15 2 18 9 26 9 38 -2 9 -7 24 -12 35 -10 10 2 18 -1 18 -6 0 -6 14 -9 31
-8 16 1 32 -1 35 -6 3 -5 9 -6 14 -3 5 3 13 -3 19 -12 6 -11 11 -13 11 -5 0 7
5 10 10 7 6 -4 8 -12 4 -18 -3 -7 1 -3 10 7 15 19 16 18 25 -5 8 -20 10 -21
10 -5 1 20 1 20 16 0 11 -15 15 -16 15 -4 1 10 4 9 10 -5 l9 -20 1 20 c1 19 1
19 14 2 10 -13 16 -15 22 -6 5 9 11 7 21 -6 7 -11 13 -14 13 -7 0 6 7 9 15 6
13 -5 13 -9 3 -23 -11 -14 -11 -14 3 -3 20 15 62 25 54 13 -3 -5 2 -12 11 -15
10 -4 13 -2 8 7 -6 8 -3 8 9 -1 9 -8 21 -11 26 -8 5 4 12 2 16 -4 4 -6 21 -9
40 -7 27 3 32 1 27 -12 -4 -13 -3 -14 9 -5 10 8 22 8 44 -2 17 -7 24 -13 16
-14 -8 0 -11 -3 -8 -6 4 -4 13 -1 22 6 12 10 15 10 15 0 0 -7 8 -10 20 -7 14
4 20 0 21 -11 0 -11 2 -12 6 -4 2 6 14 12 24 12 12 0 17 -4 13 -11 -4 -8 3 -9
25 -4 24 5 31 3 31 -9 0 -19 11 -21 28 -4 8 8 12 8 12 1 0 -6 13 -10 30 -9 22
2 27 -1 19 -10 -7 -8 -6 -15 2 -20 8 -4 9 -3 5 4 -8 13 6 17 18 5 10 -10 46
-11 39 0 -3 5 2 5 13 0 11 -5 26 -9 34 -9 8 1 22 -6 30 -14 8 -9 12 -11 8 -5
-4 7 3 10 20 9 14 0 28 -6 30 -12 2 -7 8 -12 13 -12 6 0 7 5 3 12 -4 7 8 1 26
-12 18 -13 30 -19 26 -12 -4 7 -1 12 9 12 9 0 13 -4 10 -10 -4 -6 6 -8 25 -6
17 2 37 -2 45 -10 10 -11 15 -11 18 -1 4 9 6 9 6 0 1 -7 6 -13 12 -13 5 0 7 6
3 13 -4 6 3 2 15 -10 24 -26 40 -31 21 -8 -11 13 -10 14 4 9 9 -3 16 -10 16
-15 0 -5 5 -9 11 -9 5 0 7 5 4 10 -3 6 -1 10 4 10 6 0 11 -5 11 -11 0 -8 5 -8
15 1 10 9 15 9 15 1 0 -6 5 -11 11 -11 5 0 7 5 4 10 -3 6 -2 10 3 10 5 0 14
10 20 23 6 12 11 16 11 10 1 -7 9 -13 19 -12 10 0 12 3 4 6 -6 2 -10 9 -6 14
3 5 14 4 27 -3 20 -10 21 -10 8 5 -12 15 -11 17 6 17 11 0 25 10 32 23 6 12 9
14 6 4 -3 -10 -1 -15 5 -12 6 3 10 1 10 -6 0 -8 3 -9 13 0 8 6 17 8 21 4 4 -4
4 1 0 12 -7 18 -6 19 12 6 18 -14 18 -14 2 3 -16 18 -44 14 -33 -5 4 -5 1 -9
-5 -9 -7 0 -9 7 -6 16 3 9 6 18 6 20 0 12 33 1 52 -18 16 -16 20 -17 15 -5 -7
19 4 22 20 6 8 -8 13 -7 18 2 6 8 4 10 -5 4 -10 -6 -12 -4 -7 9 5 11 3 15 -5
10 -7 -4 -8 -3 -4 4 11 18 -5 14 -19 -5 -9 -13 -14 -13 -20 -3 -5 7 -4 11 1 8
5 -3 17 5 27 18 19 26 8 34 -13 9 -7 -8 -16 -12 -21 -9 -5 3 -9 0 -9 -6 0 -6
-5 -8 -11 -5 -12 8 -7 16 13 19 7 1 25 10 39 19 25 17 59 14 59 -4 0 -5 4 -9
8 -9 17 0 8 30 -10 36 -24 7 -23 21 3 29 11 4 24 16 29 28 l9 22 0 -22 c1 -13
6 -23 11 -23 13 0 13 16 0 40 -7 13 -7 21 0 25 6 4 10 3 9 -2 -3 -20 2 -34 11
-28 6 4 7 11 4 17 -5 7 -2 8 6 3 9 -6 12 -4 8 6 -3 8 -1 23 3 34 l9 20 -1 -20
c-3 -63 17 -53 23 12 1 7 5 10 10 7 4 -3 8 0 8 7 0 7 6 4 14 -6 8 -11 13 -22
11 -25 -2 -3 5 -11 16 -18 24 -15 24 -4 -1 28 -11 14 -20 29 -20 34 0 6 7 1
15 -10 14 -18 15 -17 10 11 -4 20 -3 24 3 12 7 -18 9 -18 32 2 14 11 20 20 14
21 -5 0 -15 -5 -21 -11 -7 -7 -12 -6 -17 6 -3 9 -2 13 4 10 6 -3 19 1 31 9 12
8 27 12 33 10 16 -6 17 26 2 45 -8 11 -8 13 2 7 7 -4 12 -2 12 6 0 10 3 9 9
-2 6 -8 7 -18 5 -22 -3 -4 2 -5 11 -2 11 5 13 10 5 19 -6 7 -8 20 -4 28 5 15
7 15 22 1 12 -12 13 -18 3 -24 -9 -5 -10 -10 -2 -14 6 -4 11 -2 11 5 0 7 8 5
21 -7 18 -16 17 -12 -5 20 -14 21 -26 44 -26 50 0 6 4 5 9 -3 8 -12 12 -12 25
-2 9 8 16 9 16 3 0 -6 -5 -13 -10 -15 -6 -3 -5 -4 2 -3 21 4 15 31 -7 29 -17
-1 -16 1 7 18 15 11 26 25 24 32 -1 7 -1 9 1 5 9 -16 22 -7 18 11 -3 15 1 18
12 14 11 -4 14 -2 9 5 -5 8 -1 10 10 5 13 -5 15 -3 9 8 -8 12 -6 12 8 0 14
-11 17 -11 18 0 1 8 0 18 -1 24 -1 5 1 7 5 3 4 -4 13 -2 20 5 7 7 22 18 33 26
12 8 18 19 15 24 -4 6 -1 7 7 2 9 -5 10 -2 6 12 -4 13 0 25 11 34 15 11 16 11
6 -1 -7 -8 -13 -19 -13 -25 0 -5 14 6 31 25 17 19 27 29 23 21 -4 -9 -2 -12 7
-9 8 3 13 12 11 22 -2 9 2 16 9 16 6 0 9 7 6 15 -4 8 -2 17 4 20 5 4 9 3 8 -2
-4 -21 2 -33 16 -33 13 0 14 -4 5 -20 -6 -11 -16 -20 -22 -20 -7 0 -7 4 1 14
9 11 9 16 0 22 -8 5 -9 3 -4 -6 5 -8 4 -11 -3 -6 -7 4 -10 -1 -7 -14 2 -11 0
-18 -6 -15 -5 4 -9 1 -9 -4 0 -6 5 -11 12 -11 16 0 1 -13 -18 -16 -10 -2 -14
3 -10 11 3 8 0 17 -6 21 -7 4 -8 3 -4 -4 4 -7 3 -12 -3 -12 -10 0 -9 -25 2
-36 4 -4 7 -12 7 -18 -1 -6 -10 0 -22 14 -14 17 -19 19 -15 7 5 -13 3 -16 -6
-11 -8 5 -8 3 2 -9 11 -14 9 -21 -19 -48 -23 -24 -34 -29 -40 -20 -5 9 -10 10
-14 2 -4 -6 -4 -16 -1 -21 4 -6 1 -9 -7 -8 -7 2 -12 -3 -10 -11 3 -12 1 -12
-15 0 -17 13 -17 13 0 -7 9 -11 17 -25 17 -30 0 -4 -8 3 -17 16 -10 14 -17 28
-15 33 1 4 -3 7 -9 7 -6 0 -8 -7 -5 -16 4 -10 2 -13 -6 -8 -7 5 -8 3 -3 -6 5
-8 4 -11 -2 -7 -5 3 -10 0 -10 -8 0 -11 4 -12 14 -4 9 8 13 8 13 1 0 -6 -5
-14 -11 -17 -6 -5 -4 -16 7 -32 13 -21 14 -25 2 -21 -8 4 -15 0 -15 -8 0 -7 5
-10 10 -7 6 4 7 0 3 -8 -4 -8 0 -5 8 5 9 11 16 15 16 10 0 -6 -6 -16 -12 -24
-10 -11 -9 -11 7 0 18 14 19 14 7 -2 -13 -16 -35 -18 -48 -5 -4 4 -12 7 -18 7
-5 0 -1 -7 10 -16 10 -8 12 -12 4 -8 -12 6 -13 5 -5 -7 6 -8 2 -7 -7 3 -21 23
-36 5 -16 -20 12 -16 11 -16 -7 -2 -16 11 -17 11 -8 0 7 -8 20 -15 29 -16 14
-2 14 0 -2 17 -9 10 -15 19 -12 19 2 0 17 -14 34 -32 16 -17 22 -28 14 -24
-11 6 -11 4 1 -6 14 -11 14 -15 3 -26 -11 -10 -14 -10 -14 0 0 9 -3 9 -10 -2
-5 -8 -10 -19 -10 -25 0 -5 5 -3 10 5 6 9 10 10 10 3 0 -7 -9 -17 -19 -23 -11
-5 -19 -19 -18 -29 0 -11 5 -17 9 -15 4 3 5 -1 2 -9 -3 -8 2 -17 12 -21 13 -5
15 -4 5 7 -8 11 -6 18 10 33 22 19 22 19 9 -5 l-12 -23 34 18 c38 22 49 34 41
47 -3 5 0 7 8 5 14 -6 15 -9 4 -43 -4 -16 -3 -15 6 3 7 12 16 22 21 22 5 0 6
-4 3 -10 -3 -5 -1 -10 4 -10 6 0 11 5 11 11 0 8 5 8 15 -1 8 -7 15 -8 15 -3 0
5 -10 15 -23 22 -25 13 -34 50 -12 47 19 -3 32 -16 16 -16 -16 0 -5 -17 19
-30 15 -8 17 -6 13 13 -4 18 -3 19 6 7 7 -10 11 -11 11 -2 0 6 5 12 11 12 5 0
7 -5 4 -10 -3 -6 -1 -10 5 -10 7 0 10 6 7 14 -7 19 51 15 64 -4 8 -11 9 -9 4
10 -6 20 -5 22 5 13 17 -16 40 -5 40 19 0 18 1 18 24 1 13 -10 22 -21 19 -25
-2 -4 4 -5 13 -1 11 4 13 8 6 11 -7 2 -10 8 -7 13 4 5 -2 6 -12 2 -16 -6 -16
-5 -5 10 13 15 16 15 37 1 30 -20 52 -9 32 14 -7 10 -12 30 -11 45 3 25 0 27
-19 21 -19 -6 -20 -5 -8 9 7 9 17 15 21 12 5 -3 11 -1 15 5 3 5 11 10 17 10 7
0 7 -4 1 -12 -11 -14 -11 -73 0 -84 3 -4 13 1 22 9 14 14 13 16 -3 21 -10 3
-18 16 -19 28 l-2 23 20 -24 c18 -22 22 -23 44 -11 17 9 22 17 15 25 -5 7 -7
15 -3 18 3 4 1 7 -5 7 -7 0 -12 -4 -12 -10 0 -5 -5 -10 -11 -10 -5 0 -7 6 -3
13 6 10 4 10 -7 0 -17 -17 -35 -17 -21 0 5 6 8 28 7 48 -2 27 2 39 18 48 18
12 19 11 12 -6 -4 -10 -9 -30 -11 -44 -3 -23 0 -27 20 -25 13 0 22 4 19 9 -2
4 3 7 12 7 9 0 13 -5 10 -10 -3 -6 -2 -10 3 -10 4 0 18 18 30 39 19 33 20 40
7 45 -24 9 -48 -4 -35 -19 6 -7 7 -15 3 -17 -4 -3 -2 -3 5 -1 8 1 12 -2 10 -8
-2 -6 -7 -10 -11 -10 -4 1 -14 1 -22 1 -11 0 -14 7 -10 28 5 26 5 26 -5 4 -5
-13 -7 -29 -4 -34 4 -6 1 -8 -7 -6 -8 3 -12 12 -10 19 1 8 4 24 5 36 1 17 6
21 19 17 10 -3 26 1 36 11 17 14 19 14 24 0 4 -8 11 -15 17 -15 6 0 1 10 -10
23 -20 20 -22 21 -31 5 -6 -10 -17 -18 -25 -18 -14 0 -14 2 0 16 9 8 14 19 11
23 -2 5 4 16 15 26 12 10 20 13 20 7 0 -7 5 -12 11 -12 5 0 8 4 5 9 -4 5 -3
11 1 14 5 2 2 2 -5 0 -8 -1 -27 10 -43 26 -16 16 -29 26 -29 22 0 -4 5 -12 12
-19 6 -6 8 -15 4 -19 -4 -4 -12 -1 -17 7 -9 13 -10 13 -6 0 2 -8 14 -14 26
-13 21 3 30 -12 10 -19 -5 -2 -11 -11 -13 -20 -3 -24 -14 -33 -40 -33 -19 -1
-23 5 -23 29 0 29 1 30 15 8 8 -12 19 -22 24 -22 5 0 3 7 -5 14 -8 9 -13 28
-11 44 3 31 -14 55 -36 50 -7 -2 -14 2 -17 9 -6 16 48 7 60 -10 6 -8 7 -7 4 4
-4 13 1 16 25 14 16 -1 33 -8 38 -14 10 -17 22 13 14 34 -8 19 -23 19 -30 0
-4 -8 -14 -15 -23 -15 -14 0 -14 2 -1 11 12 9 11 9 -5 4 -34 -12 -76 -13 -72
-1 2 6 15 11 30 11 29 1 44 11 32 23 -4 4 -10 1 -12 -5 -3 -7 -9 -13 -14 -13
-6 0 -8 4 -5 8 2 4 0 14 -6 22 -8 12 -9 11 -4 -3 4 -11 2 -17 -5 -15 -6 2 -10
7 -10 11 1 4 1 13 1 21 0 8 10 14 25 14 22 0 24 -3 13 -16 -11 -13 -11 -14 0
-8 15 9 45 -12 36 -25 -3 -5 0 -9 5 -9 17 0 13 14 -9 40 -11 13 -20 27 -20 33
0 6 -5 6 -12 0 -7 -5 -32 -9 -55 -8 -24 1 -43 -2 -43 -6 0 -10 30 -20 41 -13
5 3 9 1 9 -5 0 -16 -21 -24 -32 -13 -6 6 -16 8 -22 6 -9 -3 -12 6 -11 28 1 22
7 34 18 36 9 2 17 8 17 13 0 6 -4 8 -9 5 -5 -3 -15 2 -22 11 -12 14 -11 15 7
9 18 -5 22 -2 22 19 0 14 -4 25 -9 25 -5 0 -8 -5 -6 -11 1 -6 -4 -14 -12 -17
-9 -3 -11 0 -6 8 5 9 4 11 -4 6 -6 -4 -9 -11 -6 -16 3 -5 1 -11 -5 -15 -5 -3
-10 1 -10 10 0 10 -5 13 -12 9 -8 -4 -10 -3 -5 2 5 5 14 9 20 9 7 0 12 5 12
12 0 6 4 15 9 20 6 5 6 2 1 -6 -6 -11 -4 -13 9 -8 10 4 20 7 22 7 2 0 4 5 4
11 0 5 -4 8 -8 5 -5 -3 -9 1 -9 9 0 8 4 12 8 9 13 -8 60 27 52 39 -3 6 -1 7 5
3 18 -11 14 -22 -12 -34 -21 -9 -23 -16 -21 -72 2 -55 0 -63 -19 -70 -15 -6
-7 -8 28 -7 48 2 69 17 45 33 -9 5 -10 2 -6 -9 3 -10 2 -17 -3 -17 -16 0 -22
21 -10 35 15 18 41 20 37 3 -1 -6 7 -13 18 -15 18 -3 18 -2 2 5 -10 4 -18 11
-18 15 3 25 0 27 -21 16 -18 -10 -20 -9 -15 5 10 25 -3 49 -19 35 -10 -8 -13
-6 -11 10 1 14 6 20 15 16 7 -3 10 0 7 6 -4 6 3 7 19 3 16 -4 26 -2 26 5 0 6
-7 8 -17 4 -11 -4 -14 -3 -9 5 4 6 2 21 -5 33 -9 17 -8 20 2 14 9 -6 10 -3 5
11 -4 10 -4 15 0 11 4 -4 12 1 19 10 9 13 14 13 20 3 5 -8 4 -11 -2 -7 -6 4
-15 -5 -21 -18 -13 -28 -1 -41 25 -26 17 10 17 10 1 11 -10 0 -18 5 -18 10 0
15 16 12 34 -6 9 -8 16 -11 16 -5 0 5 -8 15 -17 20 -10 6 -14 11 -10 11 4 0 3
9 -3 19 -13 25 4 38 27 20 13 -11 17 -10 28 4 14 19 30 24 19 5 -4 -7 -3 -8 4
-4 7 4 12 2 12 -3 0 -6 5 -11 11 -11 8 0 8 5 -1 15 -15 18 1 20 18 3 9 -9 12
-9 12 0 0 7 -3 13 -7 13 -42 7 -61 10 -75 10 -10 0 -18 5 -18 10 0 6 5 7 10 4
6 -3 10 -2 10 3 0 5 7 9 15 9 8 0 12 -4 9 -9 -3 -4 0 -8 5 -8 6 0 11 9 11 21
0 13 -4 18 -12 14 -7 -4 -4 1 7 10 11 9 19 21 17 26 -1 6 2 8 8 4 5 -3 10 -1
10 6 0 7 3 9 6 6 4 -4 1 -14 -6 -23 -20 -23 -19 -54 2 -65 14 -7 20 -6 24 6
10 24 -3 46 -22 38 -24 -9 -9 14 18 28 17 9 20 9 15 -3 -3 -8 -1 -21 4 -29 5
-9 7 -4 5 16 -1 19 -7 29 -16 27 -10 -2 -10 2 2 20 9 13 19 21 23 20 15 -7 24
22 12 38 -11 13 -10 13 6 1 13 -11 17 -11 17 -1 0 8 3 10 6 7 4 -4 1 -14 -7
-23 -13 -16 -12 -16 8 -4 12 8 19 18 16 22 -2 5 1 15 7 23 10 12 10 15 -1 15
-11 0 -11 2 1 10 13 9 13 11 0 20 -9 5 -10 10 -3 10 12 0 12 17 0 37 -4 6 -2
15 4 19 8 5 9 3 4 -7 -6 -11 -5 -11 5 -2 7 6 20 9 29 6 13 -4 14 -3 1 5 -8 6
-17 9 -21 6 -4 -2 -12 2 -18 10 -8 10 -8 16 4 26 13 10 13 15 1 32 -16 23 -10
53 8 41 7 -5 3 0 -7 9 -11 10 -14 18 -8 18 6 0 8 6 6 12 -2 7 -7 26 -9 41 -4
22 -2 27 9 23 8 -3 17 0 21 6 4 7 3 8 -4 4 -6 -3 -16 2 -22 13 -6 12 -6 22 -1
25 10 7 9 31 -2 42 -4 4 -2 13 4 21 9 9 8 13 0 13 -8 0 -9 5 -1 19 5 11 6 22
1 25 -9 6 -7 48 3 65 4 5 2 12 -4 16 -7 4 -6 13 1 27 7 12 7 18 1 14 -11 -7
-11 12 1 32 5 7 3 12 -5 12 -9 0 -9 3 2 10 13 8 13 10 0 10 -11 0 -11 3 -2 12
14 14 16 32 3 23 -6 -3 -6 6 -1 25 6 20 5 30 -2 30 -6 0 -6 6 2 15 9 11 9 15
1 15 -7 0 -9 5 -5 12 11 18 12 48 2 48 -5 0 -4 10 3 21 9 17 8 20 -3 13 -11
-6 -11 -5 1 9 10 13 10 17 1 17 -10 0 -10 4 1 16 10 13 10 17 -2 25 -10 6 -11
9 -1 9 9 0 10 5 3 18 -6 11 -6 24 0 34 5 9 6 19 1 22 -6 4 -8 56 -2 64 7 8 4
28 -5 35 -7 4 -7 10 0 15 13 9 15 102 2 102 -6 0 -5 5 1 13 7 8 7 18 2 27 -5
8 -6 19 -2 24 12 20 10 156 -2 149 -8 -5 -8 -3 0 8 6 8 11 60 12 124 0 61 2
160 3 220 2 61 -1 116 -5 123 -4 7 -3 12 1 12 5 0 8 53 7 118 0 64 4 123 9
129 6 9 6 13 -2 13 -13 0 -10 42 4 52 6 5 5 8 -3 8 -9 0 -10 5 -2 19 6 13 7
22 0 26 -6 4 -6 15 0 30 5 14 6 25 1 25 -10 0 -9 19 1 35 4 6 3 17 -2 25 -5 9
-5 19 2 27 7 9 7 13 -2 13 -10 0 -10 3 0 15 10 12 10 15 -1 15 -10 0 -10 3 -2
11 8 8 8 20 3 34 -5 13 -6 26 -2 29 11 12 10 36 -1 36 -8 0 -7 3 1 9 8 4 14
12 14 16 0 4 -6 12 -14 16 -7 5 -8 9 -3 9 14 0 15 50 1 50 -7 0 -7 3 -1 8 16
11 17 33 3 50 -7 9 -8 13 -2 9 7 -4 10 34 11 122 0 70 3 133 7 139 4 7 2 12
-6 12 -10 0 -10 2 -1 8 7 4 9 13 5 19 -4 7 -5 39 -2 73 4 37 2 61 -5 64 -6 3
-6 5 0 5 11 1 13 170 2 187 -3 5 -2 15 2 22 4 7 6 29 4 49 -1 20 2 42 8 49 6
8 7 14 0 18 -5 4 -9 20 -9 36 1 17 5 27 11 23 6 -4 7 -1 1 8 -12 20 -12 79 0
79 8 0 8 3 1 8 -14 9 -13 55 0 64 6 5 5 8 -3 8 -7 0 -10 5 -7 11 11 16 12 69
2 69 -4 0 -5 6 0 13 10 16 10 38 1 59 -5 10 -3 18 5 21 9 4 9 6 0 6 -7 1 -10
7 -8 14 10 24 12 76 4 71 -5 -3 -5 6 0 19 6 16 6 28 -2 36 -8 8 -8 11 2 11 11
0 11 3 1 15 -10 12 -10 15 0 15 9 0 10 3 1 13 -7 10 -7 17 0 24 8 8 8 13 0 17
-7 4 -7 15 -1 31 6 15 6 27 -1 30 -5 4 -6 12 -2 18 12 20 11 127 -1 127 -8 0
-8 2 0 8 13 8 13 91 0 111 -6 9 -5 12 0 8 6 -3 10 62 9 171 0 97 3 187 7 199
4 12 3 25 -1 28 -5 3 -5 21 -1 40 5 24 4 35 -4 35 -7 0 -7 3 -1 8 6 4 10 89
10 217 0 128 -4 213 -10 217 -7 5 -7 8 0 8 12 0 13 238 2 257 -4 6 -3 14 2 17
10 7 9 25 -2 43 -4 6 -3 14 1 17 5 3 8 26 6 51 -3 33 -1 44 8 39 8 -5 8 -3 2
7 -12 18 -14 201 -2 216 5 6 5 14 0 17 -4 2 -8 38 -7 78 1 40 -3 79 -9 87 -8
11 -8 13 0 8 7 -4 10 42 9 149 0 86 3 158 7 160 5 3 5 11 1 17 -11 18 -10 71
2 79 7 5 7 8 0 8 -12 0 -13 329 -1 348 4 6 3 12 -3 12 -10 0 -9 45 2 56 3 3 2
16 -3 29 -9 25 -8 44 3 63 5 6 4 12 -2 12 -10 0 -9 45 2 56 3 3 3 16 -1 28
-10 28 -8 688 2 704 4 7 3 12 -3 12 -10 0 -9 45 2 56 3 3 2 16 -3 29 -9 25 -8
44 3 63 5 6 4 12 -2 12 -10 0 -9 45 2 56 3 3 1 17 -4 31 -6 18 -6 30 2 39 6 8
7 14 2 14 -13 0 -13 32 0 48 6 8 6 12 -1 12 -11 0 -10 38 1 57 4 6 2 15 -4 19
-8 4 -7 9 2 15 8 5 10 9 4 9 -11 0 -12 61 -1 78 3 6 2 13 -3 16 -10 7 -9 25 2
43 4 6 2 15 -4 19 -8 4 -7 9 2 15 11 7 11 9 1 9 -10 0 -10 5 -2 20 6 11 7 20
3 20 -10 0 -10 41 1 58 4 7 2 12 -5 12 -8 0 -8 4 1 15 7 8 8 15 3 15 -5 0 -9
9 -9 20 0 11 4 20 8 20 5 0 4 9 -2 19 -7 14 -7 22 1 27 8 4 7 9 -2 15 -8 5 -9
9 -3 9 10 0 10 62 0 78 -3 5 -1 14 4 22 5 8 5 22 -1 32 -5 10 -6 18 -1 18 5 0
9 7 9 15 0 8 -5 15 -10 15 -5 0 -4 7 3 15 8 10 9 15 1 15 -7 0 -8 8 0 27 7 20
6 28 -3 35 -7 4 -8 8 -2 8 6 0 11 7 11 15 0 8 -3 15 -7 15 -4 0 -7 7 -7 15 0
8 4 12 9 9 4 -3 8 -1 8 5 0 5 -5 13 -10 16 -6 4 -7 11 -4 17 11 17 12 98 2 98
-5 0 -6 6 -1 13 11 18 10 81 -2 89 -6 5 -6 8 3 8 6 0 12 7 12 16 0 9 -5 12
-12 8 -7 -5 -8 -3 -2 7 13 21 14 41 3 60 -6 11 -5 20 1 24 13 8 9 55 -5 55 -5
0 -3 5 5 10 8 5 11 10 6 10 -5 0 -3 6 3 14 9 10 8 16 -4 26 -9 8 -12 17 -7 24
5 6 9 60 8 119 -1 60 2 111 7 114 4 2 4 10 0 16 -10 17 -11 77 -1 83 5 3 5 10
2 16 -12 19 -11 128 0 121 6 -4 2 4 -8 16 -19 21 -19 21 -1 15 14 -6 16 -4 10
6 -12 19 -12 70 0 70 6 0 3 5 -5 10 -11 7 -11 10 -2 10 7 0 10 4 7 10 -11 18
-12 80 -1 80 6 0 4 5 -4 10 -12 8 -12 10 -1 10 11 0 11 3 1 15 -7 8 -9 15 -4
15 10 0 9 103 -1 119 -3 6 -1 11 4 11 13 0 10 22 -4 32 -6 5 -5 8 4 8 11 0 11
3 1 15 -7 8 -9 15 -4 15 10 0 10 113 0 129 -4 6 -4 11 1 11 9 0 9 267 0 277
-4 3 -2 14 3 24 7 12 6 19 -3 22 -7 3 -8 6 -1 6 11 1 10 58 -1 89 -3 7 -1 10
4 7 5 -3 12 -1 16 5 3 5 2 10 -3 10 -5 0 -9 15 -9 33 1 18 -3 39 -8 46 -5 8
-4 12 1 8 5 -3 9 68 8 171 -1 119 3 179 10 184 7 5 7 8 -2 8 -7 0 -10 5 -6 11
3 6 0 15 -7 20 -9 5 -10 9 -2 9 6 0 9 9 5 22 -4 16 -2 19 8 13 9 -6 11 -4 5 6
-13 20 -13 49 -1 49 8 0 8 3 0 8 -13 8 -13 50 0 71 6 10 5 12 -3 7 -8 -5 -10
0 -7 18 3 14 0 28 -5 32 -5 3 -6 10 -2 16 8 15 11 118 3 113 -4 -2 -7 2 -7 10
0 8 3 12 6 11 8 -6 5 209 -3 223 -4 6 -3 11 3 11 6 0 6 11 1 30 -6 21 -5 30 3
30 7 0 6 4 -3 10 -8 5 -10 10 -5 10 13 0 7 101 -7 118 -8 10 -6 11 8 5 15 -5
17 -4 9 8 -6 8 -10 46 -9 84 0 39 -4 73 -10 77 -7 5 -7 8 1 8 9 0 11 12 8 41
-4 28 -2 38 6 34 8 -5 8 -2 1 11 -5 11 -8 40 -7 67 2 34 0 45 -8 40 -9 -5 -9
-3 0 8 19 23 2 37 -44 36 -24 0 -45 2 -49 6 -3 3 -17 2 -30 -3 -13 -5 -24 -6
-24 -2 0 5 -17 7 -37 6 -21 -1 -43 3 -50 8 -7 6 -14 5 -18 -2 -5 -8 -11 -8
-21 1 -11 9 -14 8 -14 -2 0 -9 -3 -10 -8 -4 -9 12 -52 13 -71 1 -10 -7 -12 -6
-6 4 6 10 3 12 -13 8 -12 -4 -22 -1 -22 4 0 7 -5 6 -13 -1 -8 -6 -17 -8 -21
-4 -3 4 -23 7 -44 7 -20 1 -42 4 -47 8 -6 4 -17 3 -25 -2 -7 -4 -24 -4 -36 0
-14 6 -26 5 -29 -1 -4 -5 -12 -6 -18 -2 -13 8 -24 9 -159 14 -49 2 -88 8 -88
13 0 4 -6 3 -14 -3 -11 -9 -16 -9 -21 0 -6 8 -10 7 -16 -2 -5 -8 -9 -9 -9 -4
0 6 -37 11 -87 12 -104 3 -134 6 -152 18 -9 5 -12 4 -8 -2 4 -7 -3 -10 -18 -9
-14 0 -25 5 -25 10 0 5 -7 3 -15 -4 -8 -7 -15 -9 -15 -4 0 5 -27 9 -61 9 -33
0 -62 2 -64 5 -2 3 -35 5 -74 5 -39 0 -71 4 -71 9 0 4 -6 3 -14 -3 -11 -9 -15
-9 -19 1 -4 11 -6 10 -6 0 -1 -8 -6 -10 -13 -6 -12 7 -65 11 -210 17 -38 1
-68 4 -68 7 0 3 -33 6 -73 7 -145 3 -197 8 -197 18 0 7 -3 7 -8 0 -11 -16 -34
-17 -43 -3 -7 10 -9 10 -9 -1 0 -11 -3 -11 -15 -1 -12 10 -15 10 -15 0 0 -9
-4 -10 -13 -2 -7 6 -27 9 -45 7 -18 -2 -31 -1 -28 3 2 4 -4 8 -15 8 -10 0 -19
-3 -19 -7 0 -9 -41 1 -59 15 -11 8 -13 8 -7 -1 5 -9 -4 -12 -33 -10 -23 1 -41
7 -41 12 0 7 -3 7 -8 0 -9 -13 -32 -18 -32 -7 0 5 -27 8 -61 7 -33 0 -63 3
-65 7 -3 4 -16 3 -29 -2 -14 -5 -25 -6 -25 -2 0 4 -15 7 -32 6 -18 -1 -36 4
-40 10 -6 8 -8 7 -8 -1 0 -9 -7 -10 -23 -4 -14 5 -30 5 -40 0 -12 -7 -17 -6
-17 2 0 8 -5 7 -17 -2 -9 -8 -14 -9 -10 -3 4 8 -9 10 -41 9 -26 -1 -53 2 -59
8 -9 7 -13 5 -13 -7 0 -16 -1 -16 -16 -1 -12 12 -19 13 -24 5 -6 -9 -9 -9 -15
0 -6 9 -10 9 -16 -1 -5 -8 -9 -9 -9 -3 0 6 -10 10 -22 9 -13 -1 -29 3 -37 9
-10 7 -13 7 -8 0 4 -7 -10 -10 -39 -10 -24 1 -44 5 -44 10 0 5 -7 3 -15 -4 -9
-7 -15 -8 -15 -2 0 12 -18 11 -39 -2 -9 -6 -12 -5 -8 1 5 8 -85 15 -200 15
-20 0 -30 4 -26 11 4 6 1 7 -8 1 -19 -12 -39 -14 -39 -4 0 5 -13 5 -29 0 -16
-4 -32 -5 -36 -2 -3 4 -25 7 -48 7 -24 1 -48 5 -55 9 -7 4 -12 2 -12 -6 0 -9
-3 -9 -10 2 -5 8 -10 10 -10 4 0 -8 -11 -9 -34 -4 -19 4 -37 5 -40 2 -3 -2
-13 1 -23 9 -11 9 -14 10 -9 1 5 -8 1 -11 -13 -9 -11 2 -23 6 -27 10 -4 3 -15
2 -25 -4 -14 -7 -19 -6 -19 2 0 9 -3 9 -14 0 -10 -9 -16 -9 -21 -1 -5 8 -11 8
-21 -1 -10 -8 -14 -8 -14 0 0 6 -7 11 -15 11 -8 0 -15 -6 -15 -12 0 -8 -3 -9
-8 -3 -9 13 -24 16 -91 17 -31 1 -62 6 -70 12 -12 8 -13 8 -7 -2 6 -9 3 -12
-10 -10 -11 2 -22 7 -26 12 -4 6 -13 4 -22 -3 -11 -10 -16 -10 -16 -2 0 8 -5
9 -19 1 -11 -5 -22 -6 -25 -1 -3 4 -16 8 -28 7 -13 -1 -33 1 -45 6 -14 4 -23
4 -23 -2 0 -6 -9 -6 -22 -1 -13 4 -44 7 -70 7 -27 -1 -48 2 -48 7 0 4 -9 3
-19 -3 -14 -7 -21 -6 -24 3 -4 9 -7 9 -15 -1 -7 -10 -11 -10 -22 2 -7 9 -17
13 -24 9 -16 -11 -40 -10 -48 2 -5 6 -8 6 -8 -1 0 -8 -11 -9 -34 -4 -19 4 -37
5 -40 2 -3 -2 -13 1 -23 9 -11 9 -14 10 -9 1 5 -9 1 -11 -16 -8 -13 3 -23 5
-23 6 0 1 -10 3 -22 4 -13 2 -23 -2 -23 -8 0 -7 -3 -8 -8 -1 -4 6 -20 10 -37
10 -16 0 -49 3 -72 6 -28 4 -43 2 -43 -5 0 -7 -3 -8 -8 -1 -4 6 -20 10 -37 10
-16 0 -38 3 -47 8 -10 4 -18 4 -18 -1 0 -4 -9 -8 -20 -8 -11 0 -20 3 -20 6 0
3 -24 6 -52 6 -99 1 -153 7 -167 18 -11 8 -13 8 -8 -1 5 -8 0 -11 -13 -10 -11
1 -20 5 -20 9 0 5 -9 4 -20 -2 -11 -6 -20 -7 -20 -2 0 5 -18 8 -39 8 -25 0
-37 -4 -33 -11 3 -5 -2 -4 -11 3 -9 8 -20 11 -26 8 -5 -3 -12 0 -14 6 -4 10
-8 9 -16 -2 -8 -12 -11 -12 -11 -1 0 10 -3 11 -13 3 -8 -7 -18 -7 -27 -2 -8 5
-18 6 -22 3 -5 -2 -16 1 -25 9 -9 7 -14 8 -10 2 4 -7 -5 -11 -23 -11 -17 0
-30 3 -30 7 0 4 -7 7 -15 7 -8 0 -12 -5 -8 -10 3 -5 -4 -6 -17 -2 -20 6 -95
11 -283 16 -43 2 -80 6 -83 11 -3 5 -11 5 -17 1 -19 -12 -37 -12 -37 -1 0 7
-5 6 -14 -1 -11 -9 -16 -9 -21 0 -6 8 -10 7 -16 -2 -5 -8 -9 -9 -9 -4 0 13
-39 13 -59 1 -9 -6 -12 -5 -7 2 4 7 -7 9 -31 8 -21 -2 -44 2 -50 7 -9 6 -13 6
-13 -2 0 -7 -4 -10 -9 -6 -5 3 -34 6 -63 6 -29 1 -61 6 -72 11 -13 7 -16 7
-12 -1 5 -7 -2 -10 -18 -9 -15 1 -26 6 -26 11 0 5 -7 4 -15 -3 -11 -9 -19 -10
-28 -1 -10 8 -17 7 -25 -1 -7 -7 -12 -8 -12 -2 0 5 -46 10 -103 11 -157 2
-211 7 -219 18 -5 7 -8 7 -8 -1 0 -11 -66 -12 -77 -1 -3 4 -12 2 -20 -4 -10
-9 -13 -8 -13 2 0 10 -3 10 -12 1 -14 -14 -32 -16 -24 -3 5 7 -18 8 -49 1 -5
-1 -12 -1 -15 0 -3 1 -52 4 -109 5 -57 2 -110 6 -117 9 -8 3 -14 1 -14 -5 0
-6 -5 -7 -12 -3 -7 4 -38 7 -70 7 -37 0 -55 3 -51 10 4 6 1 7 -8 1 -18 -11
-39 -12 -61 -2 -10 5 -18 3 -21 -5 -4 -9 -8 -9 -15 2 -7 10 -14 10 -30 2 -13
-7 -23 -7 -27 -2 -6 10 -154 12 -156 2z m7901 -13581 c0 -13 -5 -18 -15 -14
-12 5 -13 10 -4 20 15 19 19 18 19 -6z m-86 -45 c-7 -16 -24 -21 -24 -6 0 8 7
13 27 20 1 1 0 -6 -3 -14z m-114 -195 c0 -5 -5 -10 -11 -10 -8 0 -9 -4 0 -13
10 -13 6 -27 -9 -27 -6 0 -7 21 -1 53 2 11 21 9 21 -3z m-110 -51 c0 -5 5 -9
11 -9 5 0 7 5 3 12 -4 7 -3 8 5 4 18 -11 8 -29 -18 -33 -12 -2 -20 1 -17 5 2
4 1 13 -3 20 -5 8 -15 -1 -30 -27 -13 -25 -27 -38 -35 -35 -8 3 -17 1 -21 -5
-6 -11 7 -15 34 -11 12 1 13 -1 2 -14 -10 -12 -16 -13 -32 -3 -11 7 -17 17
-15 23 2 6 -1 17 -7 23 -7 7 -7 12 -2 11 23 -5 36 1 29 13 -4 6 -3 9 1 4 5 -4
17 0 27 10 10 9 18 12 18 7 0 -5 4 -2 10 6 6 9 5 19 -3 29 -8 10 -3 8 16 -3
15 -10 27 -22 27 -27z m-22 -21 c-2 -7 6 -13 17 -13 16 0 20 -7 21 -36 1 -29
-2 -36 -15 -34 -9 2 -18 4 -20 4 -3 1 4 8 15 16 19 15 19 15 -1 8 l-20 -6 20
24 20 24 -22 -18 c-12 -11 -27 -16 -34 -11 -8 4 -10 3 -5 -4 4 -7 2 -12 -3
-12 -14 0 -14 6 4 40 16 31 27 39 23 18z m-21 -78 c-14 -11 -29 -20 -34 -20
-11 1 37 40 49 40 6 0 -1 -9 -15 -20z m122 -6 c24 15 18 -15 -9 -44 -17 -18
-30 -36 -30 -42 0 -5 -5 -6 -10 -3 -6 4 -8 10 -5 15 7 12 -5 40 -18 40 -7 0
-7 -4 1 -12 18 -18 15 -33 -3 -18 -9 7 -14 18 -11 25 2 6 -5 17 -15 23 -18 11
-18 11 -7 -8 11 -17 10 -22 -2 -30 -22 -14 -30 -12 -24 5 4 8 11 12 17 8 6 -3
7 -1 3 5 -7 12 -29 7 -60 -14 -31 -21 -47 -6 -22 20 14 15 25 19 34 13 8 -7
19 -4 32 8 15 14 23 15 33 6 8 -6 18 -7 22 -3 5 4 5 1 1 -5 -12 -22 8 -14 22
8 10 16 16 18 27 9 8 -6 19 -9 24 -6z m141 -45 c0 -6 -4 -7 -10 -4 -5 3 -10
11 -10 16 0 6 5 7 10 4 6 -3 10 -11 10 -16z m-290 -9 c-8 -5 -10 -10 -5 -11
41 -6 55 -5 55 4 0 6 11 0 25 -13 14 -13 25 -27 25 -31 0 -12 -30 -39 -43 -39
-7 0 -4 7 6 14 14 11 15 15 4 19 -8 3 -20 1 -28 -4 -11 -6 -11 -11 -1 -21 14
-14 16 -38 2 -38 -5 0 -9 6 -7 13 1 7 -6 11 -17 9 -17 -3 -18 -2 -7 12 11 13
11 19 0 33 -12 14 -12 16 1 11 8 -3 23 -1 32 3 10 6 19 5 23 -1 3 -5 12 -10
18 -10 14 1 -22 23 -40 26 -7 1 -13 -2 -13 -8 0 -6 -6 -5 -15 2 -12 10 -15 10
-15 -1 0 -11 -2 -11 -10 1 -5 8 -10 11 -10 6 0 -5 7 -18 17 -28 15 -17 15 -19
-2 -38 -20 -22 -35 -19 -16 3 8 11 8 21 -4 43 -8 16 -15 23 -15 15 0 -10 -3
-11 -14 -2 -16 14 -42 -11 -30 -30 5 -8 3 -9 -6 -4 -9 5 -11 4 -6 -3 11 -19
-3 -35 -19 -22 -10 8 -15 8 -21 -1 -4 -7 -3 -9 4 -5 6 3 13 2 17 -4 3 -5 1
-11 -4 -11 -6 -1 -15 -3 -21 -4 -5 -1 -15 -3 -22 -4 -7 0 -4 -7 6 -14 14 -11
16 -18 9 -32 -10 -16 -11 -16 -25 3 l-14 21 -13 -21 c-7 -11 -8 -17 -2 -14 7
5 9 0 5 -11 -3 -10 -2 -14 3 -8 12 14 36 18 28 4 -4 -6 4 -3 19 6 23 16 26 16
20 1 -3 -9 -10 -14 -14 -11 -5 3 -11 1 -15 -4 -3 -6 -13 -7 -22 -4 -11 4 -14
3 -9 -5 4 -7 15 -12 24 -12 14 0 15 -2 2 -10 -9 -6 -17 -5 -22 3 -6 9 -8 8 -8
-3 0 -13 -1 -13 -10 0 -9 13 -10 13 -10 0 0 -13 -1 -13 -10 0 -7 11 -10 11
-10 2 0 -7 -4 -11 -9 -7 -5 3 -13 1 -16 -5 -4 -6 -1 -9 7 -8 7 2 12 -3 10 -10
-1 -8 2 -11 10 -6 10 5 10 4 1 -6 -7 -8 -14 -12 -16 -9 -44 58 -47 62 -36 75
6 7 8 19 4 26 -4 7 1 4 9 -6 9 -11 16 -23 16 -28 0 -4 4 -8 9 -8 5 0 8 16 6
34 -1 21 3 34 9 33 6 -1 10 3 9 10 -2 7 3 10 11 7 8 -3 21 5 30 18 9 12 16 18
16 13 0 -5 7 1 16 13 8 12 12 28 8 35 -4 6 2 4 13 -6 19 -16 20 -16 20 0 0 10
-4 23 -9 30 -7 9 -4 11 11 8 11 -2 23 0 26 6 4 5 17 7 30 5 14 -3 26 1 29 10
3 8 11 14 18 14 9 0 8 -3 -2 -10z m158 -22 c15 -15 16 -28 2 -28 -5 0 -10 8
-10 17 0 15 -2 15 -14 -2 -8 -11 -12 -25 -9 -32 5 -13 -9 -18 -20 -7 -7 8 20
64 31 64 5 0 13 -5 20 -12z m38 -32 c2 -23 1 -26 -12 -15 -12 10 -15 10 -12
-1 2 -7 -3 -15 -11 -18 -9 -3 -11 0 -7 9 4 8 -1 3 -12 -11 -17 -21 -22 -22
-36 -11 -14 12 -16 11 -9 -5 6 -17 5 -17 -10 -5 -9 7 -17 9 -17 3 0 -18 27
-21 55 -6 32 17 55 18 55 4 0 -6 -8 -10 -17 -8 -14 2 -18 -4 -17 -25 1 -20 -3
-27 -12 -23 -7 3 -16 1 -19 -4 -4 -6 -12 -10 -18 -10 -7 1 -1 10 12 21 13 11
21 22 18 25 -3 3 -14 -4 -25 -16 -11 -12 -25 -19 -31 -15 -6 3 -11 1 -11 -6 0
-8 -4 -8 -15 1 -8 7 -15 17 -15 22 0 6 7 5 15 -2 12 -10 15 -10 15 1 0 12 2
12 9 0 6 -9 11 -10 15 -2 7 11 -5 15 -32 12 -10 -2 -9 5 4 23 16 26 21 28 59
30 12 1 19 8 19 18 -1 12 5 17 20 15 15 -1 21 3 20 16 -3 30 19 13 22 -17z
m-236 -1 c0 5 5 4 12 -3 14 -14 -8 -45 -26 -36 -6 3 -2 -2 8 -10 16 -13 22
-13 35 -3 12 9 13 9 7 0 -9 -16 6 -17 21 -2 9 9 11 4 8 -17 -4 -35 19 -64 44
-57 11 3 21 1 24 -4 9 -14 -48 -10 -65 5 -13 10 -19 10 -32 -3 -9 -9 -16 -15
-17 -13 -6 27 -6 38 2 38 6 0 7 5 3 12 -4 7 -3 8 5 4 6 -4 9 -12 6 -17 -4 -5
-2 -9 3 -9 5 0 12 8 14 18 4 15 0 18 -18 16 -13 -1 -24 2 -24 8 0 6 -7 7 -16
4 -10 -4 -13 -2 -7 7 4 6 -5 4 -19 -5 -15 -10 -33 -16 -40 -15 -7 2 -10 2 -5
0 4 -3 4 -10 0 -16 -4 -6 0 -8 10 -4 9 3 19 1 23 -5 4 -6 3 -8 -4 -4 -7 4 -9
-4 -7 -23 3 -24 0 -29 -13 -26 -12 2 -18 -3 -18 -15 0 -10 5 -16 10 -13 5 4 6
1 1 -7 -5 -9 -4 -11 3 -6 8 5 10 1 5 -9 -5 -13 -7 -14 -14 -3 -7 10 -9 11 -9
0 0 -8 -5 -10 -12 -6 -7 5 -9 2 -6 -8 4 -8 2 -21 -4 -29 -8 -11 -9 -11 -4 3 3
10 1 20 -5 24 -6 3 -8 12 -6 18 3 7 -1 13 -8 13 -7 0 -11 -6 -8 -14 3 -8 0
-12 -8 -10 -8 2 -10 2 -6 -1 4 -2 0 -10 -10 -18 -17 -13 -17 -14 2 -8 16 4 16
3 -3 -9 -21 -12 -22 -15 -7 -27 13 -11 15 -10 9 3 -4 12 0 15 20 13 14 -1 29
-6 34 -11 4 -4 2 -5 -4 -2 -6 3 -11 0 -11 -8 0 -8 4 -15 9 -15 4 0 8 5 8 12 0
6 2 9 5 6 3 -3 3 -13 -1 -22 -5 -13 -9 -14 -20 -5 -8 6 -12 15 -9 19 3 4 -2
11 -10 14 -13 5 -14 2 -3 -17 7 -12 11 -25 10 -29 -1 -4 9 -5 22 -2 21 3 24 1
21 -21 -1 -14 -6 -29 -10 -33 -5 -4 -5 1 -2 10 6 18 -10 35 -30 32 -7 -1 -18
-2 -24 -3 -5 0 -7 -7 -2 -13 16 -27 12 -40 -8 -22 -12 10 -19 13 -20 6 -1 -7
-2 -16 -3 -22 0 -5 -4 -9 -8 -7 -4 1 -14 -7 -23 -18 -12 -16 -14 -17 -9 -2 8
21 -9 22 -26 2 -10 -12 -16 -13 -24 -4 -8 8 -8 13 1 16 6 2 23 19 37 38 25 32
25 34 8 56 -19 26 -23 54 -7 54 6 0 25 11 43 23 24 18 30 27 22 36 -7 10 -3
12 18 11 37 -3 63 12 55 31 -3 8 -2 14 3 13 22 -4 32 2 29 19 -1 9 -8 16 -15
14 -6 -1 -9 2 -5 8 4 6 1 18 -7 27 -7 9 -8 14 -2 10 17 -10 71 35 68 57 -4 30
8 41 23 21 7 -11 13 -15 13 -10z m230 -96 c0 6 6 11 13 11 6 -1 0 -11 -14 -23
-22 -18 -26 -29 -24 -61 l3 -39 -25 27 c-13 14 -28 24 -34 21 -12 -8 -11 2 2
26 7 14 14 17 22 11 8 -7 16 -5 25 4 7 8 9 14 5 14 -5 0 -9 10 -10 23 l-2 22
20 -24 c10 -13 19 -18 19 -12z m-224 -7 c1 -12 -3 -22 -8 -22 -6 0 -8 6 -5 13
3 8 -1 14 -8 14 -11 0 -11 -5 -3 -20 8 -15 7 -18 -3 -12 -8 6 -10 4 -4 -5 6
-9 4 -11 -5 -5 -9 5 -11 4 -6 -3 14 -22 16 -53 3 -47 -7 4 -5 1 3 -7 8 -7 16
-22 18 -33 2 -19 1 -19 -17 2 -15 18 -20 20 -25 8 -3 -8 -2 -14 2 -14 19 3 22
-2 8 -16 -8 -8 -17 -15 -19 -15 -7 0 -1 40 8 63 4 10 3 17 -4 17 -6 0 -11 5
-11 10 0 6 6 9 13 8 7 -2 11 6 10 17 -1 11 3 23 10 27 8 5 8 10 -1 21 -15 17
-9 24 20 22 16 -1 23 -8 24 -23z m-316 -12 c0 -5 -5 -10 -11 -10 -5 0 -7 5 -4
10 3 6 8 10 11 10 2 0 4 -4 4 -10z m640 -16 c0 -8 -4 -12 -10 -9 -5 3 -10 10
-10 16 0 5 5 9 10 9 6 0 10 -7 10 -16z m-245 -33 c-4 -3 -10 1 -15 9 -6 8 -10
10 -10 4 0 -6 -7 -11 -15 -11 -18 0 -19 9 -3 25 9 9 16 8 30 -5 10 -9 16 -19
13 -22z m-65 9 c6 -11 15 -18 21 -15 5 4 9 2 9 -4 0 -5 -4 -13 -10 -16 -5 -3
-10 -2 -10 2 0 5 -9 9 -20 10 -19 2 -19 1 1 -20 13 -14 16 -23 8 -26 -8 -2 -7
-6 2 -12 11 -7 11 -9 1 -9 -7 0 -10 -4 -7 -10 3 -5 -1 -10 -9 -10 -9 0 -16 5
-16 10 0 6 5 10 11 10 6 0 7 5 2 13 -4 6 -8 17 -10 22 -1 6 -4 21 -7 34 -9 42
15 57 34 21z m119 -16 c9 -19 7 -22 -10 -21 -10 1 -19 8 -19 17 0 13 -2 13 -9
1 -5 -8 -17 -16 -26 -17 -20 -3 -33 -14 -16 -14 7 0 5 -9 -6 -27 -10 -15 -12
-24 -5 -20 17 11 15 -4 -4 -31 -14 -20 -17 -21 -36 -7 -15 10 -25 11 -34 4 -9
-7 -19 -7 -34 1 -20 10 -21 10 -11 -8 6 -11 7 -22 4 -26 -3 -3 -1 -6 6 -6 7 0
9 -5 5 -12 -5 -7 -3 -8 7 -2 17 10 109 13 109 2 0 -12 -18 -19 -25 -8 -4 6
-11 7 -17 4 -5 -4 -24 -7 -42 -9 -18 -1 -39 -5 -46 -10 -9 -5 -11 -4 -6 3 4 7
1 12 -6 12 -11 0 -10 2 0 9 11 7 10 9 -3 15 -9 3 -13 11 -10 16 4 6 1 17 -5
25 -10 11 -10 15 -1 15 7 0 10 4 7 8 -2 4 -1 14 5 22 6 11 9 11 10 3 3 -28 4
-32 11 -39 5 -4 18 1 30 12 12 10 19 14 15 8 -10 -17 43 -38 57 -23 8 9 8 10
-2 4 -12 -6 -12 -3 -1 16 13 26 13 27 -4 48 -9 12 -9 13 0 8 7 -5 17 0 24 12
7 10 18 17 26 14 7 -3 15 1 18 9 9 22 32 18 44 -8z m36 -33 c-3 -6 -10 -9 -15
-6 -4 3 -13 -2 -20 -10 -7 -8 -17 -15 -22 -15 -7 0 -6 5 1 13 8 10 7 14 -4 14
-8 0 -11 -5 -8 -10 4 -6 -1 -8 -11 -4 -11 5 -15 3 -10 -5 4 -7 3 -8 -4 -4 -7
4 -12 2 -12 -4 0 -7 8 -9 20 -5 15 5 18 3 14 -9 -3 -9 -10 -14 -15 -11 -4 3
-13 -4 -19 -16 -7 -13 -8 -19 -2 -15 6 3 14 2 17 -4 5 -8 11 -8 20 0 7 6 18 9
25 8 7 -2 14 3 16 10 1 7 0 8 -2 3 -3 -6 -11 -8 -19 -5 -7 3 -16 0 -20 -5 -3
-6 -11 -9 -16 -6 -11 7 -12 26 -1 24 4 -1 16 -1 27 0 16 1 17 3 6 10 -10 7 -7
9 11 8 18 -2 25 -7 23 -22 0 -11 5 -28 13 -37 18 -22 9 -23 -22 -3 -21 14 -25
14 -36 0 -9 -11 -15 -13 -20 -4 -6 8 -13 8 -30 -1 -31 -17 -36 -6 -11 26 12
15 19 35 16 45 -3 9 -1 20 5 24 6 3 8 10 5 14 -2 5 15 8 38 7 37 -1 42 2 39
19 -3 19 -2 19 13 3 10 -9 14 -21 10 -27z m-574 6 c-10 -9 -11 -8 -5 6 3 10 9
15 12 12 3 -3 0 -11 -7 -18z m272 -52 c-12 -32 -23 -14 -14 23 1 2 5 1 11 -3
5 -3 7 -12 3 -20z m384 10 c-2 -5 -10 -10 -17 -10 -7 0 -15 5 -17 10 -2 6 6
11 17 11 11 0 19 -5 17 -11z m-687 -15 c0 -5 -2 -10 -4 -10 -3 0 -8 5 -11 10
-3 6 -1 10 4 10 6 0 11 -4 11 -10z m436 -50 c5 1 10 -2 11 -7 5 -14 -66 -10
-71 4 -4 11 -1 11 14 3 11 -6 20 -7 19 -3 -3 19 2 27 10 15 4 -8 12 -13 17
-12z m-1456 -304 c0 -3 -4 -8 -10 -11 -5 -3 -10 -1 -10 4 0 6 5 11 10 11 6 0
10 -2 10 -4z m583 -11 c-3 -9 -8 -14 -10 -11 -3 3 -2 9 2 15 9 16 15 13 8 -4z"/>
<path d="M11235 1390 c-10 -11 -13 -20 -7 -20 6 0 16 9 22 20 6 11 9 20 7 20
-2 0 -12 -9 -22 -20z"/>
<path d="M11345 1300 c-3 -5 -2 -17 3 -26 8 -14 10 -14 21 0 13 15 8 36 -9 36
-5 0 -12 -4 -15 -10z m25 -10 c0 -5 -4 -10 -10 -10 -5 0 -10 5 -10 10 0 6 5
10 10 10 6 0 10 -4 10 -10z"/>
<path d="M11199 1273 c-13 -16 -12 -17 4 -4 16 13 21 21 13 21 -2 0 -10 -8
-17 -17z"/>
<path d="M11060 1126 c0 -2 7 -9 15 -16 9 -7 15 -8 15 -2 0 5 -7 12 -15 16 -8
3 -15 4 -15 2z"/>
<path d="M11024 1098 c-15 -21 -10 -51 8 -54 16 -2 16 0 3 19 -11 15 -12 24
-3 34 6 7 8 13 5 13 -2 0 -9 -6 -13 -12z"/>
<path d="M10966 1052 c-2 -4 -1 -14 4 -22 7 -11 9 -9 7 8 -1 24 -3 26 -11 14z"/>
<path d="M11173 1197 c0 -19 24 -30 33 -16 3 6 3 13 0 16 -3 4 -6 0 -6 -7 0
-9 -4 -8 -13 4 -12 16 -14 16 -14 3z"/>
<path d="M11139 1143 c-13 -17 -13 -17 6 -3 11 8 22 16 24 17 2 2 0 3 -6 3 -6
0 -17 -8 -24 -17z"/>
<path d="M11090 1010 c-8 -15 -8 -18 3 -14 8 3 14 11 14 19 0 20 -4 19 -17 -5z"/>
<path d="M10995 956 c-16 -13 -33 -22 -37 -20 -13 9 -1 -26 17 -46 17 -19 17
-21 0 -40 -10 -11 -15 -20 -11 -20 4 0 -3 -10 -16 -22 -13 -13 -17 -17 -8 -11
9 7 26 11 37 9 15 -3 20 0 18 12 -3 23 16 33 35 19 13 -10 13 -10 2 5 -11 14
-10 18 9 28 22 12 22 12 -10 37 -31 24 -31 26 -16 49 19 30 17 30 -20 0z m1
-15 c-4 -5 7 -20 23 -33 l28 -24 -33 -23 c-19 -13 -31 -27 -29 -31 3 -5 1 -11
-4 -14 -16 -10 -5 26 12 39 15 11 14 14 -8 35 -23 22 -24 25 -8 42 17 19 28
24 19 9z"/>
<path d="M10976 922 c-3 -5 5 -19 18 -31 13 -13 26 -18 30 -13 3 5 -5 19 -18
31 -13 13 -26 18 -30 13z m29 -22 c10 -11 16 -20 13 -20 -3 0 -13 9 -23 20
-10 11 -16 20 -13 20 3 0 13 -9 23 -20z"/>
<path d="M11370 1056 c7 -7 13 -7 20 0 6 6 3 10 -10 10 -13 0 -16 -4 -10 -10z"/>
<path d="M12110 2391 c0 -6 4 -13 10 -16 6 -3 7 1 4 9 -7 18 -14 21 -14 7z"/>
<path d="M11835 2259 c-4 -6 -5 -12 -2 -15 2 -3 7 2 10 11 7 17 1 20 -8 4z"/>
<path d="M11766 2252 c-3 -5 1 -9 9 -9 8 0 12 4 9 9 -3 4 -7 8 -9 8 -2 0 -6
-4 -9 -8z"/>
<path d="M11850 2196 c0 -2 7 -7 16 -10 8 -3 12 -2 9 4 -6 10 -25 14 -25 6z"/>
<path d="M11736 2148 c3 -5 10 -6 15 -3 13 9 11 12 -6 12 -8 0 -12 -4 -9 -9z"/>
<path d="M11979 2138 c-5 -18 -6 -38 -1 -34 7 8 12 36 6 36 -2 0 -4 -1 -5 -2z"/>
<path d="M11860 2116 c0 -2 8 -10 18 -17 15 -13 16 -12 3 4 -13 16 -21 21 -21
13z"/>
<path d="M12054 2086 c1 -8 5 -18 8 -22 4 -3 5 1 4 10 -1 8 -5 18 -8 22 -4 3
-5 -1 -4 -10z"/>
<path d="M11779 2063 c-13 -16 -12 -17 4 -4 16 13 21 21 13 21 -2 0 -10 -8
-17 -17z"/>
<path d="M11800 2045 c-7 -9 -11 -17 -9 -20 3 -2 10 5 17 15 14 24 10 26 -8 5z"/>
<path d="M12029 2033 c-13 -16 -12 -17 4 -4 16 13 21 21 13 21 -2 0 -10 -8
-17 -17z"/>
<path d="M11860 2016 c0 -2 8 -10 18 -17 15 -13 16 -12 3 4 -13 16 -21 21 -21
13z"/>
<path d="M12130 2010 c0 -5 5 -10 11 -10 5 0 7 5 4 10 -3 6 -8 10 -11 10 -2 0
-4 -4 -4 -10z"/>
<path d="M11819 1997 c8 -9 16 -15 19 -12 3 3 12 -1 21 -8 14 -11 14 -10 2 6
-8 9 -16 15 -19 12 -3 -3 -12 1 -21 8 -14 11 -14 10 -2 -6z"/>
<path d="M12916 1992 c-3 -5 1 -9 9 -9 8 0 12 4 9 9 -3 4 -7 8 -9 8 -2 0 -6
-4 -9 -8z"/>
<path d="M11787 1977 c-3 -7 3 -13 14 -13 13 0 15 3 7 13 -6 7 -12 13 -13 13
-2 0 -5 -6 -8 -13z"/>
<path d="M12176 1972 c-3 -4 4 -9 15 -9 23 -2 25 3 4 10 -8 4 -16 3 -19 -1z"/>
<path d="M11929 1953 c-13 -16 -12 -17 4 -4 16 13 21 21 13 21 -2 0 -10 -8
-17 -17z"/>
<path d="M11876 1943 c-6 -14 -5 -15 5 -6 7 7 10 15 7 18 -3 3 -9 -2 -12 -12z"/>
<path d="M11824 1932 c4 -3 14 -7 22 -8 9 -1 13 0 10 4 -4 3 -14 7 -22 8 -9 1
-13 0 -10 -4z"/>
<path d="M11950 1932 c0 -5 7 -9 15 -9 8 0 12 4 9 9 -3 4 -9 8 -15 8 -5 0 -9
-4 -9 -8z"/>
<path d="M11996 1928 c3 -5 10 -6 15 -3 13 9 11 12 -6 12 -8 0 -12 -4 -9 -9z"/>
<path d="M12130 1929 c0 -5 5 -7 10 -4 6 3 10 8 10 11 0 2 -4 4 -10 4 -5 0
-10 -5 -10 -11z"/>
<path d="M11884 1908 c-12 -14 -13 -18 -3 -10 9 6 18 10 21 7 2 -3 5 2 5 10 0
19 0 19 -23 -7z"/>
<path d="M12039 1903 c-13 -16 -12 -17 4 -4 16 13 21 21 13 21 -2 0 -10 -8
-17 -17z"/>
<path d="M11757 1876 c10 -12 18 -22 19 -24 1 -1 4 6 7 17 3 15 1 18 -11 14
-9 -4 -13 -2 -9 4 3 5 0 10 -8 10 -12 0 -12 -4 2 -21z"/>
<path d="M11840 1885 c-11 -13 -15 -13 -21 -3 -5 8 -8 5 -6 -9 l1 -23 23 22
c13 12 23 23 23 25 0 7 -8 2 -20 -12z"/>
<path d="M11950 1886 c7 -7 13 -7 20 0 6 6 3 10 -10 10 -13 0 -16 -4 -10 -10z"/>
<path d="M11996 1891 c-3 -5 2 -15 12 -22 15 -12 16 -12 5 2 -7 9 -10 19 -6
22 3 4 4 7 0 7 -3 0 -8 -4 -11 -9z"/>
<path d="M12210 1890 c0 -5 5 -10 11 -10 5 0 7 5 4 10 -3 6 -8 10 -11 10 -2 0
-4 -4 -4 -10z"/>
<path d="M11895 1881 c-3 -5 -2 -12 3 -15 5 -3 9 1 9 9 0 17 -3 19 -12 6z"/>
<path d="M12035 1870 c3 -5 8 -10 11 -10 2 0 4 5 4 10 0 6 -5 10 -11 10 -5 0
-7 -4 -4 -10z"/>
<path d="M11949 1853 c-13 -16 -12 -17 4 -4 9 7 17 15 17 17 0 8 -8 3 -21 -13z"/>
<path d="M12255 1850 c3 -5 8 -10 11 -10 2 0 4 5 4 10 0 6 -5 10 -11 10 -5 0
-7 -4 -4 -10z"/>
<path d="M11879 1826 c-16 -21 -16 -22 5 -23 11 0 15 1 8 4 -10 4 -10 8 -1 19
7 8 10 16 8 18 -2 2 -11 -6 -20 -18z"/>
<path d="M12095 1839 c-4 -6 -5 -12 -2 -15 2 -3 7 2 10 11 7 17 1 20 -8 4z"/>
<path d="M12310 1831 c0 -6 4 -13 10 -16 6 -3 7 1 4 9 -7 18 -14 21 -14 7z"/>
<path d="M11707 1819 c-9 -6 -15 -14 -12 -18 2 -5 -6 -8 -20 -8 -14 0 -22 4
-18 10 3 6 1 7 -6 3 -19 -12 -3 -25 27 -22 16 1 26 8 24 15 -2 9 3 11 13 7 11
-4 14 -2 9 6 -5 8 -2 9 10 5 10 -4 15 -3 11 3 -8 12 -15 12 -38 -1z"/>
<path d="M11804 1805 c-4 -8 -11 -12 -18 -8 -7 4 -7 1 1 -9 7 -8 10 -18 6 -21
-3 -4 -1 -7 6 -7 7 0 11 6 8 13 -2 6 0 20 5 30 5 9 6 17 3 17 -3 0 -8 -7 -11
-15z"/>
<path d="M12035 1813 c3 -3 -3 -16 -12 -27 -14 -15 -14 -18 -2 -8 9 6 18 9 22
6 3 -3 4 1 3 10 -1 8 -5 18 -9 21 -4 3 -5 2 -2 -2z"/>
<path d="M11939 1808 c-5 -18 -6 -38 -1 -34 7 8 12 36 6 36 -2 0 -4 -1 -5 -2z"/>
<path d="M12344 1792 c4 -3 14 -7 22 -8 9 -1 13 0 10 4 -4 3 -14 7 -22 8 -9 1
-13 0 -10 -4z"/>
<path d="M11750 1771 c0 -10 19 -25 25 -20 1 2 -3 10 -11 17 -8 7 -14 8 -14 3z"/>
<path d="M11670 1764 c0 -5 6 -18 13 -29 12 -15 15 -16 22 -4 5 8 4 10 0 6 -5
-4 -15 3 -22 15 -7 13 -12 18 -13 12z"/>
<path d="M11730 1759 c0 -5 -5 -7 -11 -3 -8 4 -7 0 1 -15 9 -18 30 -21 30 -5
0 3 -5 2 -11 -2 -8 -4 -9 0 -4 15 3 11 4 21 1 21 -3 0 -6 -5 -6 -11z"/>
<path d="M11861 1744 c0 -11 3 -14 6 -6 3 7 2 16 -1 19 -3 4 -6 -2 -5 -13z"/>
<path d="M11951 1757 c2 -2 11 -8 20 -15 12 -9 16 -9 16 1 0 7 -9 14 -20 14
-11 1 -18 1 -16 0z"/>
<path d="M12024 1752 c4 -3 14 -7 22 -8 9 -1 13 0 10 4 -4 3 -14 7 -22 8 -9 1
-13 0 -10 -4z"/>
<path d="M11951 1723 c7 -12 15 -20 18 -17 3 2 -3 12 -13 22 -17 16 -18 16 -5
-5z"/>
<path d="M12295 1730 c3 -5 8 -10 11 -10 2 0 4 5 4 10 0 6 -5 10 -11 10 -5 0
-7 -4 -4 -10z"/>
<path d="M12326 1728 c3 -5 10 -6 15 -3 13 9 11 12 -6 12 -8 0 -12 -4 -9 -9z"/>
<path d="M11820 1726 c0 -2 7 -7 16 -10 8 -3 12 -2 9 4 -6 10 -25 14 -25 6z"/>
<path d="M11710 1711 c0 -10 19 -25 25 -20 1 2 -3 10 -11 17 -8 7 -14 8 -14 3z"/>
<path d="M11750 1708 c0 -4 4 -8 9 -8 6 0 12 4 15 8 3 5 -1 9 -9 9 -8 0 -15
-4 -15 -9z"/>
<path d="M12070 1708 c0 -4 4 -8 9 -8 6 0 12 4 15 8 3 5 -1 9 -9 9 -8 0 -15
-4 -15 -9z"/>
<path d="M11991 1697 c-8 -10 -7 -14 2 -14 8 0 14 6 14 14 0 7 -1 13 -2 13 -2
0 -8 -6 -14 -13z"/>
<path d="M11655 1690 c-2 -3 -3 -15 -1 -26 3 -20 36 -34 36 -15 0 6 -6 8 -13
5 -7 -2 -13 3 -14 14 -1 11 6 18 18 19 12 1 17 -3 13 -9 -4 -7 -2 -8 5 -4 6 4
9 11 6 16 -6 10 -44 9 -50 0z"/>
<path d="M11786 1686 c5 -13 4 -17 -4 -12 -8 5 -10 2 -5 -10 6 -15 7 -15 16 1
6 11 5 21 -3 28 -8 9 -9 7 -4 -7z"/>
<path d="M12290 1690 c0 -5 5 -10 11 -10 5 0 7 5 4 10 -3 6 -8 10 -11 10 -2 0
-4 -4 -4 -10z"/>
<path d="M12376 1688 c3 -5 10 -6 15 -3 13 9 11 12 -6 12 -8 0 -12 -4 -9 -9z"/>
<path d="M11891 1676 c-9 -10 -8 -15 2 -19 8 -3 13 3 13 14 0 23 0 23 -15 5z"/>
<path d="M11955 1680 c-4 -6 -11 -7 -17 -4 -7 4 -8 2 -4 -5 6 -9 11 -9 22 0
14 11 18 19 10 19 -3 0 -8 -5 -11 -10z"/>
<path d="M11631 1664 c0 -11 3 -14 6 -6 3 7 2 16 -1 19 -3 4 -6 -2 -5 -13z"/>
<path d="M11730 1665 c0 -8 2 -15 4 -15 2 0 6 7 10 15 3 8 1 15 -4 15 -6 0
-10 -7 -10 -15z"/>
<path d="M11850 1670 c0 -5 5 -10 10 -10 6 0 10 5 10 10 0 6 -4 10 -10 10 -5
0 -10 -4 -10 -10z"/>
<path d="M12515 1659 c-4 -6 -5 -12 -2 -15 2 -3 7 2 10 11 7 17 1 20 -8 4z"/>
<path d="M11750 1650 c0 -5 5 -10 10 -10 6 0 10 5 10 10 0 6 -4 10 -10 10 -5
0 -10 -4 -10 -10z"/>
<path d="M11496 1628 c20 -33 24 -34 47 -8 9 11 13 20 7 20 -5 0 -13 -8 -19
-17 -8 -16 -11 -15 -31 7 l-21 25 17 -27z"/>
<path d="M11696 1635 c-3 -8 -1 -15 4 -15 6 0 10 7 10 15 0 8 -2 15 -4 15 -2
0 -6 -7 -10 -15z"/>
<path d="M11600 1630 c-8 -5 -12 -11 -10 -14 3 -2 14 2 24 10 22 15 10 19 -14
4z"/>
<path d="M11736 1627 c3 -10 9 -15 12 -12 3 3 0 11 -7 18 -10 9 -11 8 -5 -6z"/>
<path d="M11805 1629 c-4 -6 -5 -12 -2 -15 2 -3 7 2 10 11 7 17 1 20 -8 4z"/>
<path d="M11552 1615 c4 -5 0 -14 -10 -21 -16 -12 -16 -14 2 -31 18 -17 18
-17 6 6 -10 20 -10 23 2 18 27 -10 39 8 15 22 -12 8 -19 10 -15 6z"/>
<path d="M11615 1611 c-3 -6 -3 -11 2 -11 4 -1 -5 -8 -20 -16 -16 -9 -27 -18
-24 -21 8 -8 57 28 51 38 -3 5 4 9 15 9 12 0 20 -5 19 -12 -2 -6 6 -13 17 -15
18 -3 18 -2 2 5 -10 4 -17 12 -15 17 4 14 -39 19 -47 6z"/>
<path d="M11716 1603 c-6 -14 -5 -15 5 -6 7 7 10 15 7 18 -3 3 -9 -2 -12 -12z"/>
<path d="M11752 1600 c-18 -29 -15 -38 4 -12 9 13 14 25 12 27 -2 2 -9 -5 -16
-15z"/>
<path d="M12435 1610 c-3 -5 -1 -10 4 -10 6 0 11 5 11 10 0 6 -2 10 -4 10 -3
0 -8 -4 -11 -10z"/>
<path d="M11835 1599 c-4 -6 -5 -12 -2 -15 2 -3 7 2 10 11 7 17 1 20 -8 4z"/>
<path d="M11930 1595 c-11 -13 -11 -18 0 -28 10 -9 11 -9 6 1 -4 7 -2 19 4 27
7 8 10 15 7 15 -2 0 -10 -7 -17 -15z"/>
<path d="M12009 1593 c-13 -16 -12 -17 4 -4 16 13 21 21 13 21 -2 0 -10 -8
-17 -17z"/>
<path d="M11877 1586 c-3 -8 0 -17 7 -19 10 -4 12 1 9 14 -6 23 -9 24 -16 5z"/>
<path d="M12031 1577 c-13 -21 -12 -21 5 -5 10 10 16 20 13 22 -3 3 -11 -5
-18 -17z"/>
<path d="M11790 1580 c8 -5 20 -10 25 -10 6 0 3 5 -5 10 -8 5 -19 10 -25 10
-5 0 -3 -5 5 -10z"/>
<path d="M11630 1570 c0 -5 5 -10 10 -10 6 0 10 5 10 10 0 6 -4 10 -10 10 -5
0 -10 -4 -10 -10z"/>
<path d="M11696 1572 c-2 -4 2 -16 10 -27 8 -10 14 -14 14 -9 0 6 -6 16 -12
23 -11 11 -10 13 5 8 9 -4 17 -2 17 3 0 12 -27 13 -34 2z"/>
<path d="M12255 1570 c-3 -5 -1 -10 4 -10 6 0 11 5 11 10 0 6 -2 10 -4 10 -3
0 -8 -4 -11 -10z"/>
<path d="M12330 1570 c0 -5 5 -10 11 -10 5 0 7 5 4 10 -3 6 -8 10 -11 10 -2 0
-4 -4 -4 -10z"/>
<path d="M11997 1563 c-10 -9 -9 -23 1 -23 5 0 9 7 9 15 0 17 -1 18 -10 8z"/>
<path d="M11475 1552 c-9 -9 -6 -22 6 -22 5 0 7 5 4 10 -3 6 -1 10 4 10 6 0
11 -6 11 -12 0 -9 3 -8 10 2 5 8 12 11 16 7 11 -11 -16 -36 -33 -30 -15 6 -33
-12 -33 -32 1 -5 5 -2 11 8 5 9 15 17 21 17 6 0 3 -11 -6 -25 -19 -29 -20 -35
-4 -35 6 0 8 3 5 6 -4 4 7 24 24 45 17 21 28 43 25 48 -6 9 -52 12 -61 3z"/>
<path d="M11595 1550 c-8 -13 4 -32 15 -25 5 3 12 -4 15 -16 4 -11 9 -18 12
-16 8 9 -18 48 -28 42 -5 -4 -9 -2 -9 4 0 5 6 12 13 14 9 4 9 6 0 6 -6 1 -15
-3 -18 -9z"/>
<path d="M11670 1553 c14 -7 13 -24 -2 -20 -20 4 -17 -43 3 -54 13 -6 19 -6
19 1 0 5 -6 10 -13 10 -7 0 -13 9 -14 20 -1 11 4 19 10 17 7 -1 12 4 12 12 0
8 -6 15 -13 17 -7 1 -8 0 -2 -3z"/>
<path d="M11800 1546 c0 -8 4 -17 9 -20 5 -4 7 3 4 14 -6 23 -13 26 -13 6z"/>
<path d="M12035 1550 c-3 -5 3 -7 12 -5 10 1 25 -2 33 -8 12 -9 13 -9 3 3 -15
16 -41 22 -48 10z"/>
<path d="M11552 1535 c4 -5 0 -14 -10 -21 -14 -11 -15 -15 -3 -26 12 -11 13
-10 7 6 -4 13 -2 17 7 13 26 -10 37 8 14 22 -12 8 -19 10 -15 6z"/>
<path d="M11750 1530 c0 -5 5 -10 10 -10 6 0 10 5 10 10 0 6 -4 10 -10 10 -5
0 -10 -4 -10 -10z"/>
<path d="M11881 1531 c-8 -5 -9 -11 -3 -15 5 -3 12 1 16 9 6 17 6 18 -13 6z"/>
<path d="M11916 1528 c3 -5 10 -6 15 -3 13 9 11 12 -6 12 -8 0 -12 -4 -9 -9z"/>
<path d="M12394 1532 c4 -3 14 -7 22 -8 9 -1 13 0 10 4 -4 3 -14 7 -22 8 -9 1
-13 0 -10 -4z"/>
<path d="M12023 1514 c9 -11 14 -23 11 -26 -3 -3 -1 -8 4 -12 18 -11 8 25 -12
41 -21 18 -21 18 -3 -3z"/>
<path d="M12316 1517 c3 -10 9 -15 12 -12 3 3 0 11 -7 18 -10 9 -11 8 -5 -6z"/>
<path d="M11690 1510 c0 -5 5 -10 10 -10 6 0 10 5 10 10 0 6 -4 10 -10 10 -5
0 -10 -4 -10 -10z"/>
<path d="M11725 1510 c3 -5 8 -10 11 -10 2 0 4 5 4 10 0 6 -5 10 -11 10 -5 0
-7 -4 -4 -10z"/>
<path d="M11780 1509 c0 -5 5 -7 10 -4 6 3 10 8 10 11 0 2 -4 4 -10 4 -5 0
-10 -5 -10 -11z"/>
<path d="M11830 1515 c0 -5 5 -17 10 -25 5 -8 10 -10 10 -5 0 6 -5 17 -10 25
-5 8 -10 11 -10 5z"/>
<path d="M11932 1511 c-11 -7 -11 -9 0 -14 9 -3 15 1 15 9 0 8 -1 14 -1 14 -1
0 -7 -4 -14 -9z"/>
<path d="M13306 1512 c-3 -5 1 -9 9 -9 8 0 12 4 9 9 -3 4 -7 8 -9 8 -2 0 -6
-4 -9 -8z"/>
<path d="M11430 1503 c0 -5 5 -15 10 -23 7 -12 9 -10 7 8 -1 19 -17 33 -17 15z"/>
<path d="M11582 1494 c-12 -8 -20 -20 -17 -25 4 -5 1 -9 -6 -9 -7 0 -9 -3 -6
-6 4 -4 13 -1 22 6 10 8 15 9 15 1 0 -6 8 -11 18 -11 12 0 8 -8 -17 -29 -22
-18 -30 -30 -23 -35 7 -4 12 -4 12 1 0 4 4 3 8 -3 5 -8 11 -7 22 4 13 14 12
15 -3 9 -9 -3 -19 -2 -22 3 -4 6 -2 10 4 10 5 0 17 7 26 16 15 16 15 19 -12
40 -22 18 -24 23 -10 24 9 0 17 5 17 10 0 13 -2 13 -28 -6z"/>
<path d="M11750 1490 c0 -5 5 -10 10 -10 6 0 10 5 10 10 0 6 -4 10 -10 10 -5
0 -10 -4 -10 -10z"/>
<path d="M11986 1492 c-2 -4 4 -8 14 -8 10 0 16 4 14 8 -3 4 -9 8 -14 8 -5 0
-11 -4 -14 -8z"/>
<path d="M11800 1485 c0 -5 5 -17 10 -25 5 -8 10 -10 10 -5 0 6 -5 17 -10 25
-5 8 -10 11 -10 5z"/>
<path d="M12095 1481 c-3 -5 -2 -12 3 -15 5 -3 9 1 9 9 0 17 -3 19 -12 6z"/>
<path d="M11504 1469 c-10 -17 13 -36 27 -22 12 12 4 33 -11 33 -5 0 -12 -5
-16 -11z m26 -9 c0 -5 -4 -10 -10 -10 -5 0 -10 5 -10 10 0 6 5 10 10 10 6 0
10 -4 10 -10z"/>
<path d="M11611 1475 c4 -3 19 -8 35 -11 16 -3 26 -2 23 1 -4 3 -19 8 -35 11
-16 3 -26 2 -23 -1z"/>
<path d="M11716 1472 c-2 -4 0 -14 6 -22 8 -12 9 -12 5 2 -3 9 -1 19 6 22 9 3
9 5 0 5 -6 1 -14 -3 -17 -7z"/>
<path d="M11770 1470 c-9 -6 -10 -10 -3 -10 6 0 15 5 18 10 8 12 4 12 -15 0z"/>
<path d="M11935 1469 c-4 -6 -4 -13 -1 -16 3 -4 6 0 6 7 0 9 7 7 23 -6 l22
-19 -19 23 c-22 25 -23 26 -31 11z"/>
<path d="M11875 1461 c-3 -5 0 -13 6 -17 8 -5 9 -3 4 6 -6 10 -4 12 9 7 10 -4
15 -3 11 3 -8 13 -22 13 -30 1z"/>
<path d="M11683 1453 c-7 -3 -13 -9 -13 -15 0 -6 7 -5 16 3 14 11 15 10 12 -7
-1 -10 -7 -23 -13 -27 -6 -5 -4 -7 4 -5 15 4 26 44 13 51 -4 2 -13 2 -19 0z"/>
<path d="M11830 1455 c0 -5 5 -17 10 -25 5 -8 10 -10 10 -5 0 6 -5 17 -10 25
-5 8 -10 11 -10 5z"/>
<path d="M12335 1450 c3 -5 8 -10 11 -10 2 0 4 5 4 10 0 6 -5 10 -11 10 -5 0
-7 -4 -4 -10z"/>
<path d="M12453 1439 c-2 -23 3 -25 10 -4 4 8 3 16 -1 19 -4 3 -9 -4 -9 -15z"/>
<path d="M11637 1429 c-3 -11 -3 -32 -1 -46 4 -23 3 -25 -11 -13 -10 8 -15 9
-15 1 0 -6 5 -11 11 -11 5 0 7 -6 3 -12 -5 -9 -2 -8 10 1 9 8 15 20 12 28 -3
8 1 16 9 19 8 4 15 11 15 16 0 6 -7 5 -16 -3 -13 -11 -14 -9 -9 14 4 15 5 27
2 27 -2 0 -7 -9 -10 -21z"/>
<path d="M12097 1439 c12 -15 55 -20 68 -8 3 3 -7 5 -22 4 -16 -1 -35 3 -43 9
-13 9 -13 9 -3 -5z"/>
<path d="M11504 1413 c14 -15 22 -31 19 -36 -3 -5 -9 -3 -14 4 -11 19 -49 21
-42 3 3 -8 9 -14 15 -14 5 0 6 5 3 10 -11 17 7 11 21 -7 11 -15 15 -16 23 -4
9 15 -23 71 -41 71 -5 0 2 -12 16 -27z"/>
<path d="M11540 1435 c0 -8 29 -12 39 -5 9 5 4 8 -13 8 -14 0 -26 -2 -26 -3z"/>
<path d="M11752 1426 c7 -8 15 -12 17 -11 5 6 -10 25 -20 25 -5 0 -4 -6 3 -14z"/>
<path d="M11800 1419 c13 -23 22 -25 13 -2 -5 12 -3 14 8 8 8 -5 11 -4 6 0 -4
5 -14 10 -22 11 -12 2 -12 -2 -5 -17z"/>
<path d="M11907 1429 c7 -9 11 -18 8 -21 -3 -3 3 -11 12 -19 16 -12 17 -12 6
2 -7 9 -11 18 -8 21 3 3 -3 11 -12 19 -16 12 -17 12 -6 -2z"/>
<path d="M11934 1432 c4 -3 14 -7 22 -8 9 -1 13 0 10 4 -4 3 -14 7 -22 8 -9 1
-13 0 -10 -4z"/>
<path d="M11986 1432 c-3 -5 1 -9 9 -9 8 0 15 4 15 9 0 4 -4 8 -9 8 -6 0 -12
-4 -15 -8z"/>
<path d="M12074 1409 c-2 -33 4 -33 11 -1 2 12 1 24 -3 26 -4 2 -8 -9 -8 -25z"/>
<path d="M12590 1430 c0 -5 5 -10 11 -10 5 0 7 5 4 10 -3 6 -8 10 -11 10 -2 0
-4 -4 -4 -10z"/>
<path d="M12910 1429 c0 -5 5 -7 10 -4 6 3 10 8 10 11 0 2 -4 4 -10 4 -5 0
-10 -5 -10 -11z"/>
<path d="M11520 1426 c0 -2 7 -9 15 -16 9 -7 15 -8 15 -2 0 5 -7 12 -15 16 -8
3 -15 4 -15 2z"/>
<path d="M12335 1410 c-3 -5 -1 -10 4 -10 6 0 11 5 11 10 0 6 -2 10 -4 10 -3
0 -8 -4 -11 -10z"/>
<path d="M12959 1403 c-13 -16 -12 -17 4 -4 16 13 21 21 13 21 -2 0 -10 -8
-17 -17z"/>
<path d="M12015 1399 c-4 -6 -5 -12 -2 -15 2 -3 7 2 10 11 7 17 1 20 -8 4z"/>
<path d="M11698 1389 c-6 -4 8 -6 30 -5 23 1 43 4 46 7 8 7 -63 6 -76 -2z"/>
<path d="M11870 1395 c0 -5 5 -17 10 -25 5 -8 10 -10 10 -5 0 6 -5 17 -10 25
-5 8 -10 11 -10 5z"/>
<path d="M12136 1388 c3 -5 10 -6 15 -3 13 9 11 12 -6 12 -8 0 -12 -4 -9 -9z"/>
<path d="M11949 1373 c-13 -16 -12 -17 3 -5 9 8 23 10 29 6 8 -4 9 -3 5 4 -10
17 -21 15 -37 -5z"/>
<path d="M12030 1386 c0 -2 8 -10 18 -17 15 -13 16 -12 3 4 -13 16 -21 21 -21
13z"/>
<path d="M11553 1372 c4 -5 0 -12 -8 -16 -8 -3 -15 -11 -14 -18 0 -10 2 -10 6
0 2 6 9 12 14 12 6 0 7 -5 3 -12 -4 -7 -3 -8 4 -4 7 4 12 2 12 -3 0 -6 5 -11
12 -11 6 0 3 9 -7 20 -22 24 -9 27 17 3 10 -9 18 -12 18 -7 0 5 -14 18 -31 28
-18 11 -29 14 -26 8z"/>
<path d="M11774 1369 c-4 -7 -3 -9 4 -5 5 3 13 0 15 -6 4 -9 6 -10 6 -1 1 17
-16 25 -25 12z"/>
<path d="M11831 1361 c-9 -16 -8 -18 9 -14 11 3 23 9 26 14 3 5 -3 6 -12 2
-12 -4 -15 -3 -10 5 4 7 5 12 2 12 -3 0 -10 -9 -15 -19z"/>
<path d="M12415 1369 c-3 -4 2 -6 10 -5 21 3 28 13 10 13 -9 0 -18 -4 -20 -8z"/>
<path d="M12515 1370 c-3 -5 -1 -10 4 -10 6 0 11 5 11 10 0 6 -2 10 -4 10 -3
0 -8 -4 -11 -10z"/>
<path d="M11664 1355 c-10 -8 -14 -15 -9 -16 6 0 -1 -4 -15 -8 -32 -9 -32 -33
0 -41 17 -4 21 -8 12 -14 -6 -4 -17 -4 -24 0 -7 4 -8 3 -4 -4 4 -7 2 -12 -3
-12 -6 0 -11 -5 -11 -11 0 -6 14 -1 30 11 32 23 32 40 -1 40 -27 0 -24 18 4
22 12 2 21 9 20 16 -2 6 4 12 12 12 8 0 15 5 15 10 0 13 -3 13 -26 -5z"/>
<path d="M11710 1355 c0 -8 4 -15 10 -15 5 0 7 7 4 15 -4 8 -8 15 -10 15 -2 0
-4 -7 -4 -15z"/>
<path d="M11750 1360 c0 -6 7 -13 15 -16 8 -4 12 -11 8 -17 -3 -6 -1 -7 5 -3
15 9 15 9 -8 29 -11 9 -20 12 -20 7z"/>
<path d="M12013 1355 c0 -8 3 -13 5 -10 3 3 12 -1 21 -7 10 -8 9 -4 -3 10 -23
26 -23 26 -23 7z"/>
<path d="M12133 1355 c0 -8 4 -15 9 -15 4 0 8 4 8 9 0 6 -4 12 -8 15 -5 3 -9
-1 -9 -9z"/>
<path d="M12230 1366 c0 -2 8 -10 18 -17 15 -13 16 -12 3 4 -13 16 -21 21 -21
13z"/>
<path d="M11490 1349 c8 -8 21 -21 29 -29 12 -12 11 -10 0 9 -9 14 -22 27 -30
29 -11 3 -11 2 1 -9z"/>
<path d="M11955 1349 c-3 -4 2 -6 10 -5 21 3 28 13 10 13 -9 0 -18 -4 -20 -8z"/>
<path d="M12166 1352 c-3 -5 1 -9 9 -9 8 0 12 4 9 9 -3 4 -7 8 -9 8 -2 0 -6
-4 -9 -8z"/>
<path d="M12786 1348 c3 -5 10 -6 15 -3 13 9 11 12 -6 12 -8 0 -12 -4 -9 -9z"/>
<path d="M11682 1328 c-7 -7 -12 -16 -12 -22 0 -5 7 -1 15 10 15 19 16 19 13
-1 -2 -11 -7 -24 -13 -28 -6 -5 -4 -7 4 -5 16 5 25 44 12 52 -4 3 -13 0 -19
-6z"/>
<path d="M11730 1320 c-6 -11 -7 -20 -2 -20 6 0 12 9 15 20 3 11 3 20 1 20 -2
0 -8 -9 -14 -20z"/>
<path d="M11787 1315 c-12 -17 -14 -26 -5 -31 7 -4 8 -3 4 4 -4 7 -3 12 2 12
9 0 26 30 20 35 -2 2 -11 -7 -21 -20z"/>
<path d="M12067 1329 c7 -7 15 -10 18 -7 3 3 -2 9 -12 12 -14 6 -15 5 -6 -5z"/>
<path d="M11876 1321 c-4 -5 -17 -8 -30 -7 -17 2 -23 -1 -19 -11 4 -9 9 -10
18 -3 6 5 14 8 17 5 3 -3 11 1 18 10 7 8 10 15 7 15 -3 0 -8 -4 -11 -9z"/>
<path d="M12013 1315 c0 -8 4 -12 9 -9 5 3 6 10 3 15 -9 13 -12 11 -12 -6z"/>
<path d="M11540 1310 c0 -5 5 -10 10 -10 6 0 10 5 10 10 0 6 -4 10 -10 10 -5
0 -10 -4 -10 -10z"/>
<path d="M12150 1310 c0 -4 7 -7 15 -6 23 3 26 12 5 13 -11 1 -20 -2 -20 -7z"/>
<path d="M12520 1310 c-9 -6 -10 -10 -3 -10 6 0 15 5 18 10 8 12 4 12 -15 0z"/>
<path d="M11576 1299 c2 -4 -4 -10 -13 -12 -15 -4 -15 -5 -2 -6 9 0 22 5 28
12 8 10 7 14 -4 14 -8 0 -12 -4 -9 -8z"/>
<path d="M11947 1297 c-3 -8 1 -14 8 -14 7 0 11 6 8 14 -3 7 -6 13 -8 13 -2 0
-5 -6 -8 -13z"/>
<path d="M12073 1295 c0 -8 10 -23 21 -32 21 -18 21 -18 4 2 -9 11 -17 24 -16
28 0 5 -2 11 -4 13 -3 2 -5 -3 -5 -11z"/>
<path d="M11750 1291 c0 -6 4 -13 10 -16 6 -3 7 1 4 9 -7 18 -14 21 -14 7z"/>
<path d="M11883 1292 c-7 -4 -9 -13 -4 -21 6 -9 10 -7 14 8 3 12 4 21 4 21 -1
0 -7 -4 -14 -8z"/>
<path d="M12030 1296 c0 -2 7 -7 16 -10 8 -3 12 -2 9 4 -6 10 -25 14 -25 6z"/>
<path d="M12400 1290 c-12 -7 -10 -9 7 -7 12 0 19 5 17 9 -6 10 -6 10 -24 -2z"/>
<path d="M11590 1275 c-7 -8 -17 -15 -23 -15 -5 0 -16 -8 -23 -17 -21 -29 -16
-34 9 -9 12 12 31 28 42 34 11 6 17 13 14 16 -3 4 -12 0 -19 -9z"/>
<path d="M12013 1277 c0 -8 6 -14 14 -14 9 0 10 4 2 14 -6 7 -12 13 -14 13 -1
0 -2 -6 -2 -13z"/>
<path d="M12177 1283 c-10 -9 -9 -23 1 -23 5 0 9 7 9 15 0 17 -1 18 -10 8z"/>
<path d="M11710 1272 c0 -5 7 -9 15 -9 8 0 15 4 15 9 0 4 -7 8 -15 8 -8 0 -15
-4 -15 -8z"/>
<path d="M11785 1267 c-14 -11 -15 -16 -5 -22 9 -5 11 -4 6 3 -9 15 -1 15 27
1 20 -9 20 -9 5 4 -10 8 -15 17 -11 20 11 12 -3 7 -22 -6z"/>
<path d="M11831 1263 c7 -12 15 -20 18 -17 3 2 -3 12 -13 22 -17 16 -18 16 -5
-5z"/>
<path d="M12136 1268 c3 -5 10 -6 15 -3 13 9 11 12 -6 12 -8 0 -12 -4 -9 -9z"/>
<path d="M11656 1248 c-9 -12 -16 -18 -16 -13 0 5 -5 4 -12 -3 -9 -9 -9 -15 1
-24 10 -11 11 -9 5 6 -5 14 -4 17 4 12 7 -4 14 -1 17 6 3 8 14 14 25 15 16 1
18 -1 8 -17 -7 -10 -15 -17 -19 -14 -10 6 -33 -36 -25 -44 3 -3 6 0 6 7 0 7 4
9 10 6 6 -4 7 1 3 11 -4 11 -2 15 4 11 6 -4 18 4 27 18 15 23 15 25 -3 35 -16
8 -23 6 -35 -12z"/>
<path d="M11754 1236 c3 -16 8 -31 11 -35 3 -3 4 7 1 23 -3 16 -8 31 -11 35
-3 3 -4 -7 -1 -23z"/>
<path d="M11917 1247 c4 -7 -1 -8 -13 -3 -15 6 -17 5 -6 -5 10 -11 15 -10 28
2 13 14 13 16 0 16 -8 0 -12 -5 -9 -10z"/>
<path d="M12045 1249 c-4 -6 -14 -8 -24 -4 -13 5 -14 4 -3 -6 10 -11 15 -10
29 4 10 9 14 17 11 17 -4 0 -10 -5 -13 -11z"/>
<path d="M11490 1246 c0 -2 7 -9 15 -16 13 -11 14 -10 9 4 -5 14 -24 23 -24
12z"/>
<path d="M11590 1241 c0 -7 -4 -10 -9 -7 -5 3 -14 -1 -21 -9 -9 -10 -9 -15 -1
-15 6 0 11 5 11 11 0 5 4 8 9 4 11 -6 26 13 17 22 -3 4 -6 1 -6 -6z"/>
<path d="M11856 1233 c-6 -14 -5 -15 5 -6 7 7 10 15 7 18 -3 3 -9 -2 -12 -12z"/>
<path d="M12139 1238 c15 -21 31 -23 31 -6 0 6 -3 8 -7 5 -3 -4 -13 -1 -22 6
-14 11 -14 10 -2 -5z"/>
<path d="M11715 1230 c-8 -13 4 -32 15 -25 5 3 11 -2 13 -10 3 -11 4 -10 3 2
-1 10 -8 17 -14 16 -16 -4 -15 14 1 20 9 4 9 6 0 6 -6 1 -15 -3 -18 -9z"/>
<path d="M11790 1230 c-9 -6 -10 -10 -3 -10 6 0 15 5 18 10 8 12 4 12 -15 0z"/>
<path d="M12073 1226 c-3 -6 -3 -8 2 -4 4 4 13 3 20 -2 8 -7 12 -5 12 3 0 16
-25 18 -34 3z"/>
<path d="M11879 1225 c-1 -3 -2 -8 -3 -12 -1 -5 -5 -15 -10 -23 -7 -12 -6 -13
4 -3 13 12 23 43 14 43 -2 0 -5 -2 -5 -5z"/>
<path d="M11949 1213 c-13 -16 -12 -17 3 -5 9 8 23 10 29 6 8 -4 9 -3 5 4 -10
17 -21 15 -37 -5z"/>
<path d="M11587 1206 c-14 -11 -15 -15 -4 -19 8 -3 20 -1 28 4 11 7 11 9 1 9
-7 0 -10 5 -7 10 8 13 4 12 -18 -4z"/>
<path d="M11035 1173 c-22 -19 -33 -30 -23 -24 10 8 18 8 22 2 4 -5 18 2 32
16 40 40 13 46 -31 6z m30 7 c-10 -11 -22 -20 -28 -20 -5 0 1 9 14 20 31 25
37 25 14 0z"/>
<path d="M12013 1197 c0 -8 6 -14 14 -14 9 0 10 4 2 14 -6 7 -12 13 -14 13 -1
0 -2 -6 -2 -13z"/>
<path d="M12150 1207 c0 -2 6 -10 14 -16 11 -9 16 -9 22 1 4 7 4 10 -1 6 -4
-4 -14 -3 -22 3 -7 6 -13 9 -13 6z"/>
<path d="M11685 1190 c-3 -6 1 -7 9 -4 18 7 21 14 7 14 -6 0 -13 -4 -16 -10z"/>
<path d="M11810 1192 c0 -4 10 -9 22 -9 18 -2 20 0 8 7 -18 12 -30 13 -30 2z"/>
<path d="M11893 1188 c-4 -7 -1 -8 7 -3 9 6 12 4 8 -7 -4 -8 -1 -15 7 -15 8 0
11 7 7 15 -4 11 -1 13 9 7 8 -5 11 -4 6 0 -12 13 -36 15 -44 3z"/>
<path d="M12115 1181 c-3 -5 -2 -12 3 -15 5 -3 9 1 9 9 0 17 -3 19 -12 6z"/>
<path d="M11460 1169 c0 -5 5 -7 10 -4 6 3 10 8 10 11 0 2 -4 4 -10 4 -5 0
-10 -5 -10 -11z"/>
<path d="M11565 1170 c3 -5 11 -10 16 -10 6 0 7 5 4 10 -3 6 -11 10 -16 10 -6
0 -7 -4 -4 -10z"/>
<path d="M11610 1170 c0 -6 -15 -19 -32 -30 -21 -13 -27 -20 -16 -20 9 0 19 4
23 10 3 5 12 7 20 4 8 -4 12 -10 9 -15 -3 -5 -10 -6 -16 -3 -7 5 -8 2 -3 -6 6
-10 3 -12 -11 -7 -12 5 -9 -1 9 -14 15 -11 27 -25 27 -31 0 -6 -9 -3 -20 7
-11 10 -20 14 -20 9 0 -5 -5 -2 -11 6 -7 10 -9 11 -7 2 2 -8 7 -13 11 -13 13
2 35 -24 30 -34 -3 -5 2 -2 12 7 17 16 17 19 3 35 -13 15 -14 20 -3 30 7 6 15
11 17 10 2 -1 -4 5 -13 14 -16 15 -16 17 -1 33 10 10 12 16 4 16 -7 0 -12 -5
-12 -10z"/>
<path d="M11695 1170 c-3 -5 -3 -10 2 -10 4 -1 -3 -7 -17 -15 -14 -7 -26 -18
-26 -24 -1 -6 -2 -16 -3 -22 0 -5 -5 -7 -11 -4 -5 3 -10 1 -10 -4 0 -6 4 -11
10 -11 13 0 31 36 22 45 -4 5 1 5 11 2 10 -4 16 -3 13 2 -3 5 1 12 10 15 9 3
12 11 8 18 -5 8 -2 9 9 5 10 -3 17 -2 17 3 0 13 -27 13 -35 0z"/>
<path d="M12040 1164 c-11 -12 -10 -18 5 -32 18 -16 18 -16 6 1 -11 14 -11 20
-1 32 7 8 10 15 7 15 -2 0 -10 -7 -17 -16z"/>
<path d="M12070 1176 c0 -2 7 -7 16 -10 8 -3 12 -2 9 4 -6 10 -25 14 -25 6z"/>
<path d="M12296 1172 c-3 -4 4 -9 15 -9 23 -2 25 3 4 10 -8 4 -16 3 -19 -1z"/>
<path d="M11660 1161 c-8 -6 -18 -7 -22 -5 -4 3 -8 0 -8 -5 0 -15 13 -14 36 4
21 16 17 20 -6 6z"/>
<path d="M11740 1155 c0 -8 4 -15 10 -15 5 0 7 7 4 15 -4 8 -8 15 -10 15 -2 0
-4 -7 -4 -15z"/>
<path d="M11797 1155 c-4 -8 -3 -16 1 -19 4 -3 9 4 9 15 2 23 -3 25 -10 4z"/>
<path d="M12012 1150 c0 -14 2 -19 5 -12 2 6 2 18 0 25 -3 6 -5 1 -5 -13z"/>
<path d="M12175 1159 c-4 -6 -5 -12 -2 -15 2 -3 7 2 10 11 7 17 1 20 -8 4z"/>
<path d="M11540 1150 c0 -5 5 -10 10 -10 6 0 10 5 10 10 0 6 -4 10 -10 10 -5
0 -10 -4 -10 -10z"/>
<path d="M11872 1148 c2 -6 10 -13 16 -14 7 -1 8 0 2 3 -5 2 -8 9 -4 14 3 5 0
9 -6 9 -7 0 -10 -5 -8 -12z"/>
<path d="M11915 1141 c-6 -11 13 -26 22 -17 4 3 1 6 -6 6 -7 0 -9 5 -6 10 3 6
4 10 1 10 -3 0 -7 -4 -11 -9z"/>
<path d="M11704 1123 c-4 -10 -6 -22 -5 -27 1 -5 -5 -6 -14 -2 -9 3 -13 2 -10
-4 3 -6 1 -10 -6 -10 -7 0 -10 -3 -7 -6 10 -9 49 16 43 27 -4 5 1 12 9 15 17
7 22 24 7 24 -5 0 -12 -8 -17 -17z"/>
<path d="M11774 1132 c5 -8 -1 -12 -16 -13 -18 -1 -19 -2 -4 -6 23 -6 43 12
25 22 -8 5 -10 4 -5 -3z"/>
<path d="M11960 1130 c-9 -6 -10 -10 -3 -10 6 0 15 5 18 10 8 12 4 12 -15 0z"/>
<path d="M12195 1130 c3 -5 8 -10 11 -10 2 0 4 5 4 10 0 6 -5 10 -11 10 -5 0
-7 -4 -4 -10z"/>
<path d="M10976 1118 c3 -5 10 -6 15 -3 13 9 11 12 -6 12 -8 0 -12 -4 -9 -9z"/>
<path d="M11835 1110 c-4 -11 -11 -17 -17 -14 -7 5 -8 2 -3 -6 6 -10 11 -10
20 3 7 9 15 14 19 10 4 -4 4 0 0 10 -8 22 -11 21 -19 -3z"/>
<path d="M11876 1104 c-8 -20 -8 -24 2 -24 4 0 8 9 9 20 2 24 -3 26 -11 4z"/>
<path d="M12013 1104 c0 -9 4 -11 12 -4 7 5 14 9 16 7 2 -1 3 0 1 2 -7 11 -29
7 -29 -5z"/>
<path d="M11785 1085 c11 -9 19 -19 17 -23 -2 -3 1 -7 7 -8 7 -2 8 -1 1 3 -5
2 -8 9 -5 13 3 5 -5 14 -17 20 -22 11 -22 11 -3 -5z"/>
<path d="M11924 1085 c-4 -8 -11 -12 -17 -8 -6 3 -7 1 -3 -5 11 -18 23 -14 29
8 6 23 -1 27 -9 5z"/>
<path d="M11950 1096 c0 -2 7 -7 16 -10 8 -3 12 -2 9 4 -6 10 -25 14 -25 6z"/>
<path d="M10902 1068 c-8 -8 -9 -15 -1 -25 14 -17 -8 -46 -28 -39 -14 6 -11
-5 10 -32 7 -9 13 -9 23 -1 11 9 18 8 31 -2 15 -12 16 -12 8 1 -6 8 -11 31
-12 50 -5 66 -8 71 -31 48z m18 -53 c-7 -8 -9 -15 -5 -15 4 0 2 -7 -5 -15 -7
-8 -17 -12 -22 -9 -5 3 1 17 13 30 25 26 39 33 19 9z"/>
<path d="M11697 1068 c-7 -5 0 -6 17 -4 16 3 31 7 33 10 8 8 -37 2 -50 -6z"/>
<path d="M11830 1066 c0 -2 7 -9 15 -16 13 -11 14 -10 9 4 -5 14 -24 23 -24
12z"/>
<path d="M11530 1023 l-23 -34 22 -15 c12 -9 19 -19 17 -23 -3 -3 4 -7 15 -7
19 0 19 1 4 12 -9 7 -14 17 -10 23 3 6 0 9 -7 6 -20 -8 -20 31 -1 47 13 10 17
10 20 1 3 -7 9 -13 14 -13 15 0 10 14 -9 26 -15 10 -22 7 -42 -23z"/>
<path d="M11654 1046 c-3 -9 -10 -13 -15 -10 -5 3 -6 -2 -3 -11 5 -11 2 -14
-12 -8 -12 4 -15 3 -10 -5 4 -7 11 -12 15 -12 12 0 44 50 37 57 -3 3 -8 -2
-12 -11z"/>
<path d="M11739 1058 c0 -2 -2 -14 -5 -28 -3 -18 -2 -21 5 -10 5 8 7 18 5 22
-3 4 4 8 16 8 13 0 19 -4 14 -12 -4 -7 -3 -8 5 -4 16 10 4 26 -20 26 -10 0
-19 -1 -20 -2z"/>
<path d="M11880 1050 c-9 -6 -10 -10 -3 -10 6 0 15 5 18 10 8 12 4 12 -15 0z"/>
<path d="M11950 1049 c0 -5 5 -7 10 -4 6 3 10 8 10 11 0 2 -4 4 -10 4 -5 0
-10 -5 -10 -11z"/>
<path d="M11679 1040 c-4 -25 -3 -30 5 -29 5 0 13 -5 18 -13 8 -10 9 -10 5 2
-2 8 -10 14 -17 12 -7 -2 -9 5 -5 18 3 11 4 20 1 20 -3 0 -7 -4 -7 -10z"/>
<path d="M11711 1034 c0 -11 3 -14 6 -6 3 7 2 16 -1 19 -3 4 -6 -2 -5 -13z"/>
<path d="M11800 1030 c-8 -5 -10 -10 -5 -10 6 0 17 5 25 10 8 5 11 10 5 10 -5
0 -17 -5 -25 -10z"/>
<path d="M11835 1019 c-4 -6 -5 -12 -2 -15 2 -3 7 2 10 11 7 17 1 20 -8 4z"/>
<path d="M11550 1012 c0 -5 7 -12 15 -16 8 -3 14 -11 13 -17 -2 -6 3 -13 10
-14 7 -2 8 -1 3 1 -6 3 -7 12 -4 20 4 12 7 12 18 -3 7 -10 11 -22 8 -27 -4 -5
-1 -6 5 -2 9 5 7 14 -4 31 -9 14 -20 22 -26 19 -5 -3 -15 0 -23 6 -9 7 -15 8
-15 2z"/>
<path d="M11480 990 c0 -5 5 -10 10 -10 6 0 10 5 10 10 0 6 -4 10 -10 10 -5 0
-10 -4 -10 -10z"/>
<path d="M11640 990 c-8 -5 -10 -10 -5 -10 6 0 17 5 25 10 8 5 11 10 5 10 -5
0 -17 -5 -25 -10z"/>
<path d="M11716 983 c-6 -14 -5 -15 5 -6 7 7 10 15 7 18 -3 3 -9 -2 -12 -12z"/>
<path d="M11494 961 c3 -5 -3 -11 -14 -14 -11 -3 -20 -11 -20 -19 0 -8 3 -9 8
-2 14 20 41 24 51 6 9 -15 10 -14 8 5 0 12 -5 19 -9 17 -4 -3 -8 0 -8 5 0 6
-5 11 -11 11 -5 0 -8 -4 -5 -9z"/>
<path d="M10830 950 c0 -5 -3 -9 -7 -9 -20 3 -34 -2 -29 -10 3 -5 0 -14 -8
-20 -11 -9 -15 -9 -18 1 -3 9 -6 9 -12 0 -4 -7 -2 -12 3 -12 6 0 11 -5 11 -11
0 -5 -4 -8 -8 -5 -12 7 -64 -44 -59 -57 3 -7 10 -11 16 -9 15 3 14 -13 -2 -27
-10 -8 -17 -7 -27 2 -12 10 -12 9 -1 -6 12 -15 12 -17 -3 -11 -9 3 -17 12 -17
20 -1 8 -3 19 -4 24 -1 6 -3 13 -4 17 0 4 -7 -2 -15 -12 -8 -11 -12 -23 -10
-27 2 -4 0 -9 -6 -13 -5 -3 -10 -11 -10 -17 0 -6 6 -6 15 2 9 7 13 20 10 29
-5 13 -4 13 6 4 10 -10 9 -16 -2 -29 -12 -16 -12 -17 3 -11 10 3 24 0 32 -8
13 -13 15 -13 21 6 6 19 30 22 30 3 1 -5 6 -19 13 -31 6 -12 10 -28 9 -35 -2
-7 -2 -10 0 -5 3 4 9 5 13 2 5 -3 18 3 29 14 14 14 22 16 31 8 6 -7 11 -7 10
-2 -4 21 1 30 9 17 14 -22 52 7 46 35 -2 13 2 35 10 49 10 20 11 31 3 44 -13
20 -35 22 -42 4 -3 -8 0 -11 10 -7 7 3 15 0 15 -6 4 -37 3 -46 -10 -46 -8 0
-16 -6 -19 -14 -3 -8 0 -11 6 -7 6 3 14 1 18 -5 5 -8 3 -9 -7 -4 -11 7 -11 5
1 -11 14 -18 14 -18 -4 -4 -18 13 -19 13 -11 0 8 -13 7 -13 -10 0 -17 13 -18
13 -10 0 6 -12 5 -13 -6 -2 -7 6 -18 12 -23 12 -6 0 -6 -4 1 -8 9 -6 4 -15
-17 -34 -20 -17 -30 -21 -34 -13 -2 7 0 17 6 23 10 10 -4 50 -16 45 -15 -7
-27 -2 -23 10 2 6 10 12 17 12 7 0 15 6 18 14 3 9 0 11 -9 5 -12 -7 -12 -5 -1
9 8 9 10 22 6 28 -5 8 -3 9 6 4 9 -6 11 -4 6 6 -4 8 0 5 8 -5 9 -11 16 -16 16
-11 0 4 8 1 18 -8 10 -10 22 -14 25 -10 4 3 7 2 7 -4 0 -5 6 -10 13 -10 8 0
14 6 14 12 0 7 -10 11 -21 10 -12 0 -34 12 -51 29 -16 16 -25 26 -18 23 17
-11 45 4 39 20 -4 9 -2 11 6 7 7 -5 8 -3 3 6 -5 9 -4 11 3 6 8 -5 10 -2 6 8
-7 18 -14 21 -14 6z m-15 -40 c-3 -5 -11 -10 -16 -10 -6 0 -7 5 -4 10 3 6 11
10 16 10 6 0 7 -4 4 -10z m-59 -47 c-2 -9 -8 -19 -14 -21 -7 -2 -10 -7 -8 -11
3 -4 -1 -8 -9 -8 -19 0 -19 2 7 32 26 30 27 30 24 8z m14 -113 c0 -5 -4 -10
-10 -10 -5 0 -10 5 -10 10 0 6 5 10 10 10 6 0 10 -4 10 -10z m110 -6 c0 -8
-19 -13 -24 -6 -3 5 1 9 9 9 8 0 15 -2 15 -3z"/>
<path d="M10851 949 c4 -22 -23 -69 -35 -62 -6 4 -5 -1 3 -10 16 -21 37 -22
44 -3 6 16 35 15 45 -1 4 -5 15 -10 24 -10 12 0 15 4 8 12 -5 7 -7 15 -4 18 4
4 -3 5 -14 2 -22 -4 -55 25 -50 45 2 7 -3 15 -10 17 -7 3 -12 -1 -11 -8z m19
-44 c5 3 12 0 16 -6 4 -7 3 -9 -3 -6 -6 4 -16 0 -23 -8 -7 -8 -18 -15 -24 -15
-7 0 -6 4 2 9 8 4 13 11 13 15 -1 3 -1 12 0 19 0 9 2 9 6 -1 2 -6 9 -10 13 -7z"/>
<path d="M11441 914 c0 -11 3 -14 6 -6 3 7 2 16 -1 19 -3 4 -6 -2 -5 -13z"/>
<path d="M11484 916 c-16 -12 -17 -17 -6 -28 11 -11 12 -10 6 6 -6 15 -4 18 8
14 9 -4 15 0 15 8 0 17 1 17 -23 0z"/>
<path d="M11576 917 c3 -10 9 -15 12 -12 3 3 0 11 -7 18 -10 9 -11 8 -5 -6z"/>
<path d="M11416 892 c-2 -4 -1 -14 4 -22 7 -11 9 -9 7 8 -1 24 -3 26 -11 14z"/>
<path d="M10775 840 c-3 -5 -1 -11 5 -15 5 -3 10 -11 10 -16 0 -6 -4 -8 -9 -4
-5 3 -12 1 -16 -5 -4 -6 -12 -7 -18 -4 -7 4 -8 3 -4 -2 5 -5 13 -10 18 -10 5
-1 13 -2 17 -3 12 -2 11 -34 -2 -50 -9 -12 -8 -12 12 0 24 15 29 29 10 29 -8
0 -7 4 3 10 9 5 26 8 38 5 13 -2 19 0 15 6 -3 5 0 17 8 26 7 9 8 14 2 10 -6
-3 -22 1 -35 11 -28 19 -47 24 -54 12z m48 -20 c10 -10 9 -11 -1 -5 -9 5 -12
2 -10 -8 2 -9 -1 -16 -7 -15 -5 0 -9 5 -7 10 1 6 -2 16 -8 23 -15 18 16 14 33
-5z m20 -25 c-3 -9 -8 -14 -10 -11 -3 3 -2 9 2 15 9 16 15 13 8 -4z"/>
<path d="M11170 832 c0 -15 28 -23 36 -9 4 7 4 9 -1 5 -4 -4 -14 -3 -22 3 -8
7 -13 8 -13 1z"/>
<path d="M11126 793 c-6 -14 -5 -15 5 -6 7 7 10 15 7 18 -3 3 -9 -2 -12 -12z"/>
<path d="M11156 788 c3 -5 10 -6 15 -3 13 9 11 12 -6 12 -8 0 -12 -4 -9 -9z"/>
<path d="M10591 766 c-7 -8 -10 -19 -7 -24 7 -11 55 -10 74 1 7 5 12 4 12 -2
0 -6 5 -11 11 -11 8 0 8 5 -1 15 -10 12 -16 13 -26 4 -11 -9 -14 -8 -14 0 0 7
-4 10 -9 6 -6 -3 -14 2 -19 10 -8 15 -10 15 -21 1z"/>
<path d="M10715 760 c-3 -5 -3 -10 2 -10 4 0 -1 -6 -12 -13 -13 -9 -47 -13
-95 -12 -108 2 -127 -8 -67 -37 29 -14 35 -14 52 -1 20 15 20 15 -1 10 -12 -2
-28 0 -35 5 -11 8 -10 9 4 4 9 -3 17 -2 17 3 0 9 51 7 68 -3 7 -4 12 -2 12 6
0 8 3 9 8 3 7 -10 27 -17 50 -18 6 0 12 -5 12 -11 0 -6 5 -3 11 8 9 14 8 20
-2 27 -8 5 -10 9 -5 9 5 0 3 6 -3 13 -6 8 -8 17 -4 20 3 4 4 7 0 7 -3 0 -9 -4
-12 -10z m12 -27 c-4 -3 -2 -12 4 -19 10 -12 7 -12 -30 -5 -5 1 20 31 27 31 3
0 2 -3 -1 -7z"/>
<path d="M10990 760 c-9 -6 -10 -10 -3 -10 6 0 15 5 18 10 8 12 4 12 -15 0z"/>
<path d="M10614 702 c4 -6 -3 -16 -16 -24 -30 -16 -48 -19 -48 -7 0 5 -4 9
-10 9 -5 0 -9 -5 -7 -12 1 -7 -9 -13 -24 -13 -18 -1 -25 3 -22 12 3 7 1 13 -4
13 -5 0 -9 -9 -10 -20 -1 -11 2 -20 7 -20 5 0 12 -10 15 -21 5 -16 9 -18 15
-9 4 7 15 10 23 7 12 -4 14 -2 10 11 -6 15 -5 15 10 3 9 -7 18 -11 18 -7 1 3
2 10 3 15 0 5 4 13 9 17 6 7 11 -10 8 -29 -1 -5 3 -6 8 -2 6 3 8 12 5 19 -6
15 31 16 56 2 12 -7 13 -6 3 5 -19 19 -16 34 4 18 12 -11 17 -11 20 -2 8 22 4
27 -19 29 -13 1 -32 5 -42 10 -13 5 -17 4 -12 -4z m28 -19 c-6 -2 -10 -8 -8
-12 3 -4 -1 -8 -9 -8 -8 0 -15 4 -15 8 0 8 19 17 35 17 6 0 4 -2 -3 -5z m48 1
c0 -8 -19 -13 -24 -6 -3 5 1 9 9 9 8 0 15 -2 15 -3z m-123 -41 c0 -9 -4 -10
-10 -4 -6 6 -18 5 -32 -5 -18 -12 -22 -12 -22 0 0 8 6 12 13 9 6 -2 14 0 18 5
8 14 33 10 33 -5z"/>
<path d="M10706 672 c-3 -5 1 -9 9 -9 8 0 12 4 9 9 -3 4 -7 8 -9 8 -2 0 -6 -4
-9 -8z"/>
<path d="M9875 550 c-3 -5 -1 -10 4 -10 6 0 11 5 11 10 0 6 -2 10 -4 10 -3 0
-8 -4 -11 -10z"/>
<path d="M10033 505 c0 -8 4 -12 9 -9 5 3 6 10 3 15 -9 13 -12 11 -12 -6z"/>
</g>
</svg>
